<?xml version="1.0" encoding="UTF-8"?>
<svg xmlns="http://www.w3.org/2000/svg" xmlns:xlink="http://www.w3.org/1999/xlink" width="512px" height="512px" viewBox="0 0 512 512" version="1.1">
    
    <title>Blood</title>
    <desc>Created with Sketch.</desc>
    <defs>
        <polygon id="path-1" points="5.10992952 453.136773 162.567384 453.136773 162.567384 5.13299394 5.10992952 5.13299394"/>
        <polygon id="path-3" points="5.10992952 334.624079 162.567384 334.624079 162.567384 0.517273055 5.10992952 0.517273055"/>
        <polygon id="path-5" points="162.564211 0.362509419 5.11044237 0.362509419 5.11044237 81.8176786 162.564211 81.8176786"/>
    </defs>
    <g id="SVG" stroke="none" stroke-width="1" fill="none" fill-rule="evenodd">
        <g id="Blood">
            <g id="6" transform="translate(68.000000, 0.000000)">
                <path d="M362.122185,225.048698 C362.122185,257.012269 336.224165,282.91775 304.285364,282.91775 C272.339595,282.91775 246.441575,257.012269 246.441575,225.048698 C246.441575,193.085128 304.285364,132.343886 304.285364,132.343886 C304.285364,132.343886 362.122185,193.085128 362.122185,225.048698" id="Fill-1" fill="#E42E44"/>
                <path d="M304.28188,147.802124 C283.456165,171.253695 256.896237,207.114242 256.896237,225.051487 C256.896237,251.193993 278.153934,272.463536 304.28188,272.463536 C330.416794,272.463536 351.674491,251.193993 351.674491,225.051487 C351.674491,207.114242 325.107595,171.253695 304.28188,147.802124 M304.28188,293.377541 C266.629768,293.377541 235.99388,262.724581 235.99388,225.051487 C235.99388,189.92293 290.493292,131.663484 296.715227,125.131343 C300.658805,120.983399 307.904955,120.983399 311.848533,125.131343 C318.070468,131.663484 372.576848,189.92293 372.576848,225.051487 C372.576848,262.724581 341.933992,293.377541 304.28188,293.377541" id="Fill-3" fill="#2E2E30"/>
                <path d="M311.326671,140.084856 C323.52668,157.366796 334.249589,176.440368 334.249589,190.194812 C334.249589,222.151412 308.358536,248.063864 276.412768,248.063864 C266.379636,248.063864 256.945706,245.505384 248.724112,241.001901 C255.64976,265.199405 277.875933,282.920539 304.282577,282.920539 C336.228346,282.920539 362.119398,257.008086 362.119398,225.051487 C362.119398,200.00348 326.696871,157.394681 311.326671,140.084856" id="Fill-5" fill="#040605" opacity="0.15"/>
                <path d="M122.266943,501.181185 L115.0835,501.181185 C79.3613719,501.181185 50.3976727,472.201346 50.3976727,436.459311 L50.3976727,74.0893196 L186.95277,74.0893196 L186.95277,436.459311 C186.95277,472.201346 157.989071,501.181185 122.266943,501.181185" id="Fill-7" fill="#FEFEFE"/>
                <g id="Group-11" transform="translate(34.837262, 58.502112)">
                    <mask id="mask-2" fill="white">
                        <use xlink:href="#path-1"/>
                    </mask>
                    <g id="Clip-10"/>
                    <path d="M26.0122864,26.0469989 L26.0122864,377.953017 C26.0122864,407.873987 50.3426299,432.22486 80.2469351,432.22486 L87.423411,432.22486 C117.327716,432.22486 141.665027,407.873987 141.665027,377.953017 L141.665027,26.0469989 L26.0122864,26.0469989 Z M87.423411,453.138865 L80.2469351,453.138865 C38.8184637,453.138865 5.10992952,419.411546 5.10992952,377.953017 L5.10992952,15.5899964 C5.10992952,9.81075971 9.79205746,5.13299394 15.561108,5.13299394 L152.116206,5.13299394 C157.885256,5.13299394 162.567384,9.81075971 162.567384,15.5899964 L162.567384,377.953017 C162.567384,419.411546 128.85885,453.138865 87.423411,453.138865 L87.423411,453.138865 Z" id="Fill-9" fill="#2E2E30" mask="url(#mask-2)"/>
                </g>
                <path d="M50.3990662,187.989082 L50.3990662,430.194173 C50.3990662,466.772767 77.969275,498.861822 114.457823,501.050821 C154.074756,503.435018 186.954164,471.994297 186.954164,432.864194 L186.954164,187.989082 L50.3990662,187.989082 Z" id="Fill-12" fill="#E42E44"/>
                <g id="Group-16" transform="translate(34.837262, 177.014806)">
                    <mask id="mask-4" fill="white">
                        <use xlink:href="#path-3"/>
                    </mask>
                    <g id="Clip-15"/>
                    <path d="M26.0122864,21.431278 L26.0122864,253.179366 C26.0122864,285.233565 49.8340058,311.766466 80.2469351,313.599927 C96.3556848,314.492257 111.746787,309.026731 123.473009,297.984136 C135.206199,286.927599 141.665027,271.967114 141.665027,255.849388 L141.665027,21.431278 L26.0122864,21.431278 Z M83.911815,334.625473 C82.2744637,334.625473 80.6440799,334.576674 78.9927937,334.472104 C37.5643223,331.990308 5.10992952,296.276159 5.10992952,253.179366 L5.10992952,10.9742755 C5.10992952,5.19503882 9.79205746,0.517273055 15.561108,0.517273055 L152.116206,0.517273055 C157.885256,0.517273055 162.567384,5.19503882 162.567384,10.9742755 L162.567384,255.849388 C162.567384,277.474469 153.544533,298.381502 137.805059,313.209532 C123.041027,327.117345 104.05472,334.625473 83.911815,334.625473 L83.911815,334.625473 Z" id="Fill-14" fill="#2E2E30" mask="url(#mask-4)"/>
                </g>
                <polygon id="Fill-17" fill="#3D3D3D" points="172.160869 74.0921081 65.189574 74.0921081 50.3976727 13.5460639 186.95277 13.5460639"/>
                <g id="Group-21" transform="translate(34.837262, 2.731432)">
                    <mask id="mask-6" fill="white">
                        <use xlink:href="#path-5"/>
                    </mask>
                    <g id="Clip-20"/>
                    <path d="M38.5592745,60.9036737 L129.115252,60.9036737 L138.800011,21.2716344 L28.8745158,21.2716344 L38.5592745,60.9036737 Z M137.322911,81.8176786 L30.3516157,81.8176786 C25.5371062,81.8176786 21.3426999,78.5272085 20.2000377,73.8424714 L5.40813648,13.3033985 C4.64868418,10.1802405 5.35936431,6.88279902 7.34508822,4.35917576 C9.32384467,1.8355525 12.347719,0.357629484 15.5597145,0.357629484 L152.114812,0.357629484 C155.326808,0.357629484 158.350682,1.8355525 160.336406,4.35917576 C162.315162,6.88279902 163.025842,10.1802405 162.26639,13.3033985 L147.474489,73.8424714 C146.331827,78.5272085 142.13742,81.8176786 137.322911,81.8176786 L137.322911,81.8176786 Z" id="Fill-19" fill="#2E2E30" mask="url(#mask-6)"/>
                </g>
                <polygon id="Fill-22" fill="#040605" opacity="0.15" points="152.115509 13.5481553 137.323608 74.0941995 172.160869 74.0941995 186.95277 13.5481553"/>
                <path d="M10.4511785,74.0921081 L226.902052,74.0921081" id="Fill-24" fill="#E42E44"/>
                <path d="M226.897871,84.5491106 L10.4539654,84.5491106 C4.67794747,84.5491106 0.00278698092,79.8713448 0.00278698092,74.0921081 C0.00278698092,68.3128714 4.67794747,63.6351057 10.4539654,63.6351057 L226.897871,63.6351057 C232.666922,63.6351057 237.34905,68.3128714 237.34905,74.0921081 C237.34905,79.8713448 232.666922,84.5491106 226.897871,84.5491106" id="Fill-26" fill="#2E2E30"/>
                <path d="M145.148057,74.0921081 L145.148057,436.455129 C145.148057,466.194844 125.081794,491.180108 97.7763484,498.764921 C103.294571,500.298614 109.077556,501.183974 115.0835,501.183974 L122.266943,501.183974 C157.989071,501.183974 186.95277,472.204134 186.95277,436.455129 L186.95277,74.0921081 L145.148057,74.0921081 Z" id="Fill-28" fill="#040605" opacity="0.15"/>
                <path d="M331.56503,398.460656 C331.56503,421.905255 312.564787,440.916086 289.133245,440.916086 C265.694736,440.916086 246.701461,421.905255 246.701461,398.460656 C246.701461,375.016056 289.133245,330.448312 289.133245,330.448312 C289.133245,330.448312 331.56503,375.016056 331.56503,398.460656" id="Fill-30" fill="#E42E44"/>
                <path d="M289.135336,346.00136 C273.988094,363.44364 257.147762,387.146179 257.147762,398.460656 C257.147762,416.112076 271.500714,430.459083 289.135336,430.459083 C306.769957,430.459083 321.115942,416.112076 321.115942,398.460656 C321.115942,387.118294 304.282577,363.429698 289.135336,346.00136 M289.135336,451.373088 C259.96958,451.373088 236.245405,427.635693 236.245405,398.460656 C236.245405,372.157809 274.002029,331.187273 281.568682,323.23298 C283.540471,321.162494 286.27868,319.998281 289.135336,319.998281 C291.991991,319.998281 294.7302,321.162494 296.701989,323.23298 C304.268642,331.187273 342.018299,372.157809 342.018299,398.460656 C342.018299,427.635693 318.294123,451.373088 289.135336,451.373088" id="Fill-32" fill="#2E2E30"/>
                <path d="M294.299611,336.128556 C303.252787,348.802443 311.119041,362.800883 311.119041,372.888405 C311.119041,396.339976 292.118799,415.343835 268.687257,415.343835 C261.322659,415.343835 254.403979,413.468546 248.370166,410.164133 C253.456406,427.913152 269.760244,440.914692 289.129762,440.914692 C312.568271,440.914692 331.561546,421.910832 331.561546,398.459262 C331.561546,380.082823 305.572949,348.830328 294.299611,336.128556" id="Fill-34" fill="#040605" opacity="0.15"/>
            </g>
        </g>
    </g>

	<metadata>
		<rdf:RDF xmlns:rdf="http://www.w3.org/1999/02/22-rdf-syntax-ns#" xmlns:rdfs="http://www.w3.org/2000/01/rdf-schema#" xmlns:dc="http://purl.org/dc/elements/1.1/">
			<rdf:Description about="https://iconscout.com/legal#licenses" dc:title="Blood" dc:description="Blood" dc:publisher="Iconscout" dc:date="2017-04-20" dc:format="image/svg+xml" dc:language="en">
				<dc:creator>
					<rdf:Bag>
						<rdf:li>AomAm .</rdf:li>
					</rdf:Bag>
				</dc:creator>
			</rdf:Description>
		</rdf:RDF>
    </metadata></svg>
