<?xml version="1.0" encoding="UTF-8"?>
<svg xmlns="http://www.w3.org/2000/svg" xmlns:xlink="http://www.w3.org/1999/xlink" width="512px" height="512px" viewBox="0 0 512 512" version="1.1">
    
    <title>Blood bag</title>
    <desc>Created with Sketch.</desc>
    <defs>
        <polygon id="path-1" points="63.0580451 146.250724 63.0580451 2.23342703 3.11416541 2.23342703 3.11416541 146.250724 63.0580451 146.250724"/>
    </defs>
    <g id="SVG" stroke="none" stroke-width="1" fill="none" fill-rule="evenodd">
        <g id="Blood-bag">
            <g id="4" transform="translate(35.000000, 0.000000)">
                <path d="M148.120692,325.584259 L148.120692,325.584259 C72.0443008,325.584259 10.3766316,263.902097 10.3766316,187.807827 L10.3766316,32.8517189 C10.3766316,20.4391784 20.4343759,10.3790703 32.844,10.3790703 L263.397383,10.3790703 C275.807008,10.3790703 285.864752,20.4391784 285.864752,32.8517189 L285.864752,187.807827 C285.864752,263.902097 224.197083,325.584259 148.120692,325.584259" id="Fill-1" fill="#FEFEFE"/>
                <path d="M32.8433083,20.7567568 C26.1750376,20.7567568 20.7518797,26.1811892 20.7518797,32.8579459 L20.7518797,187.807135 C20.7518797,258.054919 77.8887218,315.205189 148.12,315.205189 C218.351278,315.205189 275.48812,258.054919 275.48812,187.807135 L275.48812,32.8579459 C275.48812,26.1811892 270.064962,20.7567568 263.396692,20.7567568 L32.8433083,20.7567568 Z M148.12,335.961946 C66.4406015,335.961946 0,269.498811 0,187.807135 L0,32.8579459 C0,14.7372973 14.7338346,0 32.8433083,0 L263.396692,0 C281.506165,0 296.24,14.7372973 296.24,32.8579459 L296.24,187.807135 C296.24,269.498811 229.799398,335.961946 148.12,335.961946 L148.12,335.961946 Z" id="Fill-3" fill="#2E2E30"/>
                <path d="M10.3759398,82.4389189 L10.3759398,203.008 C10.3759398,270.702703 72.043609,325.583568 148.12,325.583568 C224.196391,325.583568 285.86406,270.702703 285.86406,203.008 L285.86406,82.4389189 L10.3759398,82.4389189 Z" id="Fill-5" fill="#E42E44"/>
                <path d="M20.7518797,92.8172973 L20.7518797,203.008 C20.7518797,264.876973 77.8887218,315.205189 148.12,315.205189 C218.351278,315.205189 275.48812,264.876973 275.48812,203.008 L275.48812,92.8172973 L20.7518797,92.8172973 Z M148.12,335.961946 C66.4406015,335.961946 0,276.320865 0,203.008 L0,82.4389189 C0,76.7031351 4.64842105,72.0605405 10.3759398,72.0605405 L285.86406,72.0605405 C291.591579,72.0605405 296.24,76.7031351 296.24,82.4389189 L296.24,203.008 C296.24,276.320865 229.799398,335.961946 148.12,335.961946 L148.12,335.961946 Z" id="Fill-7" fill="#2E2E30"/>
                <path d="M148.120692,380.738422 L148.120692,380.738422 C133.151669,380.738422 121.018737,368.602638 121.018737,353.630097 L121.018737,326.514854 L175.222647,326.514854 L175.222647,353.630097 C175.222647,368.602638 163.089714,380.738422 148.120692,380.738422" id="Fill-9" fill="#E42E44"/>
                <path d="M131.394677,336.895308 L131.394677,353.625254 C131.394677,362.855092 138.89994,370.3552 148.120692,370.3552 C157.341444,370.3552 164.846707,362.855092 164.846707,353.625254 L164.846707,336.895308 L131.394677,336.895308 Z M148.120692,391.111957 C127.458737,391.111957 110.642797,374.298984 110.642797,353.625254 L110.642797,326.51693 C110.642797,320.781146 115.291218,316.138551 121.018737,316.138551 L175.222647,316.138551 C180.950165,316.138551 185.598586,320.781146 185.598586,326.51693 L185.598586,353.625254 C185.598586,374.298984 168.782647,391.111957 148.120692,391.111957 L148.120692,391.111957 Z" id="Fill-11" fill="#2E2E30"/>
                <path d="M188.657414,203.138768 C188.657414,225.535308 170.506436,243.683632 148.122075,243.683632 C125.730797,243.683632 107.586737,225.535308 107.586737,203.138768 C107.586737,180.742227 148.122075,138.183957 148.122075,138.183957 C148.122075,138.183957 188.657414,180.742227 188.657414,203.138768" id="Fill-13" fill="#EE3F5E"/>
                <path d="M148.120692,153.635286 C133.781143,170.199178 117.961293,192.505773 117.961293,203.140151 C117.961293,219.773232 131.491519,233.306638 148.120692,233.306638 C164.749865,233.306638 178.28009,219.773232 178.28009,203.140151 C178.28009,192.478097 162.467158,170.185341 148.120692,153.635286 M148.120692,254.063395 C120.043398,254.063395 97.2094135,231.217124 97.2094135,203.140151 C97.2094135,177.872259 133.359188,138.63507 140.608511,131.024259 C144.523699,126.914422 151.717684,126.914422 155.632872,131.024259 C162.882195,138.63507 199.03197,177.872259 199.03197,203.140151 C199.03197,231.217124 176.197985,254.063395 148.120692,254.063395" id="Fill-15" fill="#2E2E30"/>
                <path d="M277.252722,508.773708 C200.325504,508.773708 137.744752,456.41133 137.744752,392.051546 L137.744752,387.879438 C137.744752,382.143654 142.393173,377.501059 148.120692,377.501059 C153.848211,377.501059 158.496632,382.143654 158.496632,387.879438 L158.496632,392.051546 C158.496632,444.967438 211.766707,488.016951 277.252722,488.016951 C342.738737,488.016951 396.015729,444.967438 396.015729,392.051546 L396.015729,271.025816 C396.015729,265.296951 400.66415,260.647438 406.391669,260.647438 C412.119188,260.647438 416.767609,265.296951 416.767609,271.025816 L416.767609,392.051546 C416.767609,456.41133 354.17994,508.773708 277.252722,508.773708" id="Fill-17" fill="#2E2E30"/>
                <path d="M406.620632,271.027892 L406.620632,271.027892 C395.843489,271.027892 387.02394,262.20627 387.02394,251.426595 L387.02394,167.368649 C387.02394,156.588973 395.843489,147.767351 406.620632,147.767351 L406.620632,147.767351 C417.397774,147.767351 426.217323,156.588973 426.217323,167.368649 L426.217323,251.426595 C426.217323,262.20627 417.397774,271.027892 406.620632,271.027892" id="Fill-19" fill="#E42E44"/>
                <g id="Group-23" transform="translate(373.533835, 135.152086)">
                    <mask id="mask-2" fill="white">
                        <use xlink:href="#path-1"/>
                    </mask>
                    <g id="Clip-22"/>
                    <path d="M33.086797,22.9901838 C28.0025865,22.9901838 23.8660451,27.1276973 23.8660451,32.2131027 L23.8660451,116.271049 C23.8660451,121.356454 28.0025865,125.493968 33.086797,125.493968 C38.1710075,125.493968 42.3075489,121.356454 42.3075489,116.271049 L42.3075489,32.2131027 C42.3075489,27.1276973 38.1710075,22.9901838 33.086797,22.9901838 M33.086797,146.250724 C16.5544662,146.250724 3.11416541,132.807265 3.11416541,116.271049 L3.11416541,32.2131027 C3.11416541,15.6838054 16.5544662,2.23342703 33.086797,2.23342703 C49.6191278,2.23342703 63.0594286,15.6838054 63.0594286,32.2131027 L63.0594286,116.271049 C63.0594286,132.807265 49.6191278,146.250724 33.086797,146.250724" id="Fill-21" fill="#2E2E30" mask="url(#mask-2)"/>
                </g>
                <path d="M406.620632,158.14227 C400.893113,158.14227 396.244692,153.499676 396.244692,147.763892 L396.244692,94.675027 C396.244692,88.9461622 400.893113,84.2966486 406.620632,84.2966486 C412.34815,84.2966486 416.996571,88.9461622 416.996571,94.675027 L416.996571,147.763892 C416.996571,153.499676 412.34815,158.14227 406.620632,158.14227" id="Fill-24" fill="#2E2E30"/>
                <path d="M263.393925,10.3776865 L221.890165,10.3776865 C234.299789,10.3776865 244.364451,20.4377946 244.364451,32.8572541 L244.364451,187.806443 C244.364451,256.822659 193.570767,313.820714 127.365353,323.853146 C134.151218,324.884065 141.047759,325.582876 148.117233,325.582876 L148.117233,325.582876 C224.193624,325.582876 285.868211,263.900714 285.868211,187.806443 L285.868211,32.8572541 C285.868211,20.4377946 275.803549,10.3776865 263.393925,10.3776865" id="Fill-26" fill="#040605" opacity="0.15"/>
            </g>
        </g>
    </g>

	<metadata>
		<rdf:RDF xmlns:rdf="http://www.w3.org/1999/02/22-rdf-syntax-ns#" xmlns:rdfs="http://www.w3.org/2000/01/rdf-schema#" xmlns:dc="http://purl.org/dc/elements/1.1/">
			<rdf:Description about="https://iconscout.com/legal#licenses" dc:title="Blood bag" dc:description="Blood bag" dc:publisher="Iconscout" dc:date="2017-04-20" dc:format="image/svg+xml" dc:language="en">
				<dc:creator>
					<rdf:Bag>
						<rdf:li>AomAm .</rdf:li>
					</rdf:Bag>
				</dc:creator>
			</rdf:Description>
		</rdf:RDF>
    </metadata></svg>
