<?xml version="1.0" encoding="UTF-8"?>
<svg xmlns="http://www.w3.org/2000/svg" xmlns:xlink="http://www.w3.org/1999/xlink" width="512px" height="512px" viewBox="0 0 512 512" version="1.1">
    
    <title>Drugs</title>
    <desc>Created with Sketch.</desc>
    <defs>
        <polygon id="path-1" points="301.5445 309.848276 0 309.848276 0 7.14557793 301.5445 7.14557793"/>
    </defs>
    <g id="SVG" stroke="none" stroke-width="1" fill="none" fill-rule="evenodd">
        <g id="Drugs">
            <g id="10" transform="translate(26.000000, 0.000000)">
                <path d="M289.669753,357.384121 C289.669753,434.393335 227.48641,496.815846 150.77225,496.815846 C74.0580908,496.815846 11.8747472,434.393335 11.8747472,357.384121 C11.8747472,280.374908 74.0580908,217.952397 150.77225,217.952397 C227.48641,217.952397 289.669753,280.374908 289.669753,357.384121" id="Fill-1" fill="#FEFEFE"/>
                <g id="Group-5" transform="translate(0.000000, 198.885606)">
                    <mask id="mask-2" fill="white">
                        <use xlink:href="#path-1"/>
                    </mask>
                    <g id="Clip-4"/>
                    <path d="M150.775416,30.9800607 C80.725171,30.9800607 23.74158,88.1828193 23.74158,158.502488 C23.74158,228.806268 80.725171,286.016971 150.775416,286.016971 C220.817746,286.016971 277.801337,228.806268 277.801337,158.502488 C277.801337,88.1828193 220.817746,30.9800607 150.775416,30.9800607 M150.775416,309.851454 C67.6347738,309.851454 -0.00158287753,241.954957 -0.00158287753,158.502488 C-0.00158287753,75.0420745 67.6347738,7.14557793 150.775416,7.14557793 C233.908144,7.14557793 301.5445,75.0420745 301.5445,158.502488 C301.5445,241.954957 233.908144,309.851454 150.775416,309.851454" id="Fill-3" fill="#2E2E30" mask="url(#mask-2)"/>
                </g>
                <path d="M201.405337,227.64747 C231.171348,253.22187 250.094649,291.134588 250.094649,333.552022 C250.094649,410.553291 187.911306,472.983746 111.197146,472.983746 C93.3106302,472.983746 76.2709536,469.464188 60.5688086,463.283112 C84.8422354,484.146229 116.309841,496.818229 150.769084,496.818229 C227.483244,496.818229 289.666587,434.387774 289.666587,357.386505 C289.666587,298.332601 253.046716,247.978284 201.405337,227.64747" id="Fill-6" fill="#040605" opacity="0.15"/>
                <path d="M11.8739558,357.383327 C11.8739558,364.160265 12.3804766,370.81803 13.3143743,377.340734 L288.228543,377.340734 C289.162441,370.81803 289.668962,364.160265 289.668962,357.383327 C289.668962,350.606389 289.162441,343.948623 288.228543,337.42592 L13.3143743,337.42592 C12.3804766,343.948623 11.8739558,350.606389 11.8739558,357.383327" id="Fill-8" fill="#C4C3C3"/>
                <path d="M24.0059206,365.424287 L277.535414,365.424287 C277.717445,362.715101 277.796589,360.029749 277.796589,357.384121 C277.796589,354.730549 277.717445,352.045197 277.535414,349.351901 L24.0059206,349.351901 C23.831804,352.045197 23.7447458,354.730549 23.7447458,357.384121 C23.7447458,360.029749 23.831804,362.715101 24.0059206,365.424287 M288.235666,389.25877 L13.3056685,389.25877 C7.40153532,389.25877 2.39172794,384.897059 1.55280285,379.025832 C0.523932461,371.756314 0.00158287753,364.478852 0.00158287753,357.384121 C0.00158287753,350.28939 0.523932461,343.003983 1.55280285,335.750356 C2.39964233,329.871183 7.40153532,325.517418 13.3056685,325.517418 L288.235666,325.517418 C294.139799,325.517418 299.149607,329.871183 299.988532,335.750356 C301.017402,343.003983 301.539752,350.28939 301.539752,357.384121 C301.539752,364.478852 301.017402,371.756314 299.988532,379.025832 C299.157521,384.897059 294.139799,389.25877 288.235666,389.25877" id="Fill-10" fill="#2E2E30"/>
                <path d="M344.365295,496.815846 L344.365295,496.815846 C289.763934,496.815846 245.087216,451.967294 245.087216,397.155928 L245.087216,115.106604 C245.087216,60.2952386 289.763934,15.4466869 344.365295,15.4466869 L344.365295,15.4466869 C398.966655,15.4466869 443.643373,60.2952386 443.643373,115.106604 L443.643373,397.155928 C443.643373,451.967294 398.966655,496.815846 344.365295,496.815846" id="Fill-12" fill="#FEFEFE"/>
                <g id="Group-16" transform="translate(229.517241, 0.264916)" fill="#2E2E30">
                    <path d="M114.851219,27.1006014 C66.6525983,27.1006014 27.4368076,66.4592772 27.4368076,114.843277 L27.4368076,396.892601 C27.4368076,445.276601 66.6525983,484.635277 114.851219,484.635277 C163.04984,484.635277 202.257716,445.276601 202.257716,396.892601 L202.257716,114.843277 C202.257716,66.4592772 163.04984,27.1006014 114.851219,27.1006014 M114.851219,508.46976 C53.5622012,508.46976 3.69364471,458.417346 3.69364471,396.892601 L3.69364471,114.843277 C3.69364471,53.3185324 53.5622012,3.26611862 114.851219,3.26611862 C176.140237,3.26611862 226.000879,53.3185324 226.000879,114.843277 L226.000879,396.892601 C226.000879,458.417346 176.140237,508.46976 114.851219,508.46976" id="Fill-14"/>
                </g>
                <path d="M344.365295,15.4458924 L344.365295,15.4458924 C289.763934,15.4458924 245.087216,60.2944441 245.087216,115.10581 L245.087216,256.134444 L245.087216,256.134444 L443.643373,256.134444 L443.643373,256.134444 L443.643373,115.10581 C443.643373,60.2944441 398.966655,15.4458924 344.365295,15.4458924" id="Fill-17" fill="#E42E44"/>
                <path d="M256.95484,244.211641 L431.775749,244.211641 L431.775749,115.108193 C431.775749,66.7241931 392.567873,27.3655172 344.369252,27.3655172 C296.170631,27.3655172 256.95484,66.7241931 256.95484,115.108193 L256.95484,244.211641 Z M443.64733,268.046124 L245.083259,268.046124 C238.530146,268.046124 233.211678,262.7072 233.211678,256.128883 L233.211678,115.108193 C233.211678,53.5834483 283.080234,3.53103448 344.369252,3.53103448 C405.65827,3.53103448 455.518912,53.5834483 455.518912,115.108193 L455.518912,256.128883 C455.518912,262.7072 450.200443,268.046124 443.64733,268.046124 L443.64733,268.046124 Z" id="Fill-19" fill="#2E2E30"/>
                <path d="M344.365295,15.4458924 C337.590579,15.4458924 330.982065,16.1450372 324.579326,17.4559338 C369.786308,26.7275476 404.071435,67.0872717 404.071435,115.10581 L404.071435,397.155134 C404.071435,445.173672 369.786308,485.533396 324.579326,494.80501 C330.982065,496.115906 337.590579,496.815051 344.365295,496.815051 C398.966655,496.815051 443.643373,451.966499 443.643373,397.155134 L443.643373,115.10581 C443.643373,60.2944441 398.966655,15.4458924 344.365295,15.4458924" id="Fill-21" fill="#040605" opacity="0.15"/>
            </g>
        </g>
    </g>

	<metadata>
		<rdf:RDF xmlns:rdf="http://www.w3.org/1999/02/22-rdf-syntax-ns#" xmlns:rdfs="http://www.w3.org/2000/01/rdf-schema#" xmlns:dc="http://purl.org/dc/elements/1.1/">
			<rdf:Description about="https://iconscout.com/legal#licenses" dc:title="Drugs" dc:description="Drugs" dc:publisher="Iconscout" dc:date="2017-04-20" dc:format="image/svg+xml" dc:language="en">
				<dc:creator>
					<rdf:Bag>
						<rdf:li>AomAm .</rdf:li>
					</rdf:Bag>
				</dc:creator>
			</rdf:Description>
		</rdf:RDF>
    </metadata></svg>
