<?xml version="1.0" encoding="UTF-8"?>
<svg xmlns="http://www.w3.org/2000/svg" xmlns:xlink="http://www.w3.org/1999/xlink" width="512px" height="512px" viewBox="0 0 512 512" version="1.1">
    
    <title>Medicine bottle</title>
    <desc>Created with Sketch.</desc>
    <defs>
        <polygon id="path-1" points="358.252575 93.9480018 358.252575 3.71260985 0 3.71260985 0 93.9480018 358.252575 93.9480018"/>
    </defs>
    <g id="SVG" stroke="none" stroke-width="1" fill="none" fill-rule="evenodd">
        <g id="Medicine-bottle">
            <g id="12" transform="translate(77.000000, 0.000000)">
                <path d="M322.416075,83.6951375 L35.8365003,83.6951375 C21.867292,83.6951375 10.5401472,72.4095877 10.5401472,58.4916764 L10.5401472,39.6660911 C10.5401472,25.7481797 21.867292,14.4626299 35.8365003,14.4626299 L322.416075,14.4626299 C336.385283,14.4626299 347.712428,25.7481797 347.712428,39.6660911 L347.712428,58.4916764 C347.712428,72.4095877 336.385283,83.6951375 322.416075,83.6951375 L322.416075,83.6951375 Z" id="Fill-1" fill="#3D3D3D"/>
                <g id="Group-5" transform="translate(0.000000, 0.252778)">
                    <mask id="mask-2" fill="white">
                        <use xlink:href="#path-1"/>
                    </mask>
                    <g id="Clip-4"/>
                    <path d="M35.8407164,24.7154942 C27.7037228,24.7154942 21.0774836,31.3033989 21.0774836,39.4175132 L21.0774836,58.2360975 C21.0774836,66.3432109 27.7037228,72.9451175 35.8407164,72.9451175 L322.413264,72.9451175 C330.550258,72.9451175 337.176497,66.3432109 337.176497,58.2360975 L337.176497,39.4175132 C337.176497,31.3033989 330.550258,24.7154942 322.413264,24.7154942 L35.8407164,24.7154942 Z M322.413264,93.9480018 L35.8407164,93.9480018 C16.0744271,93.9480018 -0.00281070591,77.929802 -0.00281070591,58.2360975 L-0.00281070591,39.4175132 C-0.00281070591,19.7308096 16.0744271,3.71260985 35.8407164,3.71260985 L322.413264,3.71260985 C342.179553,3.71260985 358.256791,19.7308096 358.256791,39.4175132 L358.256791,58.2360975 C358.256791,77.929802 342.179553,93.9480018 322.413264,93.9480018 L322.413264,93.9480018 Z" id="Fill-3" fill="#2E2E30" mask="url(#mask-2)"/>
                </g>
                <polygon id="Fill-6" fill="#FEFEFE" points="35.9770356 127.971318 322.27554 127.971318 322.27554 83.6972378 35.9770356 83.6972378"/>
                <path d="M46.5171828,117.469876 L311.735392,117.469876 L311.735392,94.19868 L46.5171828,94.19868 L46.5171828,117.469876 Z M322.27554,138.47276 L35.9770356,138.47276 C30.1588744,138.47276 25.4368885,133.768114 25.4368885,127.971318 L25.4368885,83.6972378 C25.4368885,77.9004417 30.1588744,73.1957957 35.9770356,73.1957957 L322.27554,73.1957957 C328.093701,73.1957957 332.815687,77.9004417 332.815687,83.6972378 L332.815687,127.971318 C332.815687,133.768114 328.093701,138.47276 322.27554,138.47276 L322.27554,138.47276 Z" id="Fill-8" fill="#2E2E30"/>
                <path d="M322.416075,14.4661304 L287.282251,14.4661304 C301.251459,14.4661304 312.578604,25.7516802 312.578604,39.6695915 L312.578604,58.4951768 C312.578604,72.4130882 301.251459,83.698638 287.282251,83.698638 L287.141716,83.698638 L287.141716,127.972718 L322.27554,127.972718 L322.27554,83.698638 L322.416075,83.698638 C336.385283,83.698638 347.712428,72.4130882 347.712428,58.4951768 L347.712428,39.6695915 C347.712428,25.7516802 336.385283,14.4661304 322.416075,14.4661304" id="Fill-9" fill="#040605" opacity="0.15"/>
                <path d="M321.808962,127.969218 L36.4450182,127.969218 C22.4758098,127.969218 11.148665,139.254767 11.148665,153.172679 L11.148665,475.622961 C11.148665,489.540872 22.4758098,500.826422 36.4450182,500.826422 L321.808962,500.826422 C335.778171,500.826422 347.105316,489.540872 347.105316,475.622961 L347.105316,153.172679 C347.105316,139.254767 335.778171,127.969218 321.808962,127.969218" id="Fill-10" fill="#FEFEFE"/>
                <path d="M36.4443155,138.47416 C28.3073219,138.47416 21.6881095,145.062065 21.6881095,153.176179 L21.6881095,475.61946 C21.6881095,483.726573 28.3073219,490.321479 36.4443155,490.321479 L321.80826,490.321479 C329.95228,490.321479 336.564466,483.726573 336.564466,475.61946 L336.564466,153.176179 C336.564466,145.062065 329.95228,138.47416 321.80826,138.47416 L36.4443155,138.47416 Z M321.80826,511.324363 L36.4443155,511.324363 C16.685053,511.324363 0.607815153,495.306164 0.607815153,475.61946 L0.607815153,153.176179 C0.607815153,133.489476 16.685053,117.471276 36.4443155,117.471276 L321.80826,117.471276 C341.567522,117.471276 357.64476,133.489476 357.64476,153.176179 L357.64476,475.61946 C357.64476,495.306164 341.567522,511.324363 321.80826,511.324363 L321.80826,511.324363 Z" id="Fill-11" fill="#2E2E30"/>
                <polygon id="Fill-12" fill="#62B5E5" points="62.7349559 428.256556 290.971302 428.256556 290.971302 195.684617 62.7349559 195.684617"/>
                <path d="M73.2751031,417.755114 L280.424129,417.755114 L280.424129,206.186059 L73.2751031,206.186059 L73.2751031,417.755114 Z M290.964276,438.757998 L62.7349559,438.757998 C56.9167947,438.757998 52.1948087,434.053352 52.1948087,428.256556 L52.1948087,195.684617 C52.1948087,189.887821 56.9167947,185.183175 62.7349559,185.183175 L290.964276,185.183175 C296.782437,185.183175 301.504423,189.887821 301.504423,195.684617 L301.504423,428.256556 C301.504423,434.053352 296.782437,438.757998 290.964276,438.757998 L290.964276,438.757998 Z" id="Fill-13" fill="#2E2E30"/>
                <path d="M176.849616,309.320722 C171.031455,309.320722 166.309469,304.616076 166.309469,298.81928 L166.309469,235.572595 C166.309469,229.775799 171.031455,225.071153 176.849616,225.071153 C182.667777,225.071153 187.389763,229.775799 187.389763,235.572595 L187.389763,298.81928 C187.389763,304.616076 182.667777,309.320722 176.849616,309.320722" id="Fill-14" fill="#2E2E30"/>
                <path d="M208.593026,277.70018 L145.113233,277.70018 C139.295071,277.70018 134.573086,272.995534 134.573086,267.198738 C134.573086,261.401942 139.295071,256.697296 145.113233,256.697296 L208.593026,256.697296 C214.411187,256.697296 219.133173,261.401942 219.133173,267.198738 C219.133173,272.995534 214.411187,277.70018 208.593026,277.70018" id="Fill-15" fill="#2E2E30"/>
                <path d="M106.672613,339.366749 L245.317709,339.366749" id="Fill-16" fill="#62B5E5"/>
                <path d="M245.319114,349.870291 L106.674019,349.870291 C100.848831,349.870291 96.1338715,345.165645 96.1338715,339.368849 C96.1338715,333.572053 100.848831,328.867407 106.674019,328.867407 L245.319114,328.867407 C251.137276,328.867407 255.859262,333.572053 255.859262,339.368849 C255.859262,345.165645 251.137276,349.870291 245.319114,349.870291" id="Fill-17" fill="#2E2E30"/>
                <path d="M127.168281,375.403498 L224.826258,375.403498" id="Fill-18" fill="#62B5E5"/>
                <path d="M224.822042,385.90704 L127.171092,385.90704 C121.345904,385.90704 116.630944,381.202394 116.630944,375.405598 C116.630944,369.608802 121.345904,364.904156 127.171092,364.904156 L224.822042,364.904156 C230.640203,364.904156 235.362189,369.608802 235.362189,375.405598 C235.362189,381.202394 230.640203,385.90704 224.822042,385.90704" id="Fill-19" fill="#2E2E30"/>
                <path d="M36.4457208,500.824322 L321.809665,500.824322 C335.778873,500.824322 347.106018,489.538772 347.106018,475.62086 L347.106018,153.170579 C347.106018,139.252667 335.778873,127.967117 321.809665,127.967117 L287.146634,127.967117 C287.146634,127.967117 344.899614,500.824322 36.4457208,500.824322" id="Fill-20" fill="#040605" opacity="0.15"/>
            </g>
        </g>
    </g>

	<metadata>
		<rdf:RDF xmlns:rdf="http://www.w3.org/1999/02/22-rdf-syntax-ns#" xmlns:rdfs="http://www.w3.org/2000/01/rdf-schema#" xmlns:dc="http://purl.org/dc/elements/1.1/">
			<rdf:Description about="https://iconscout.com/legal#licenses" dc:title="Medicine bottle" dc:description="Medicine bottle" dc:publisher="Iconscout" dc:date="2017-04-20" dc:format="image/svg+xml" dc:language="en">
				<dc:creator>
					<rdf:Bag>
						<rdf:li>AomAm .</rdf:li>
					</rdf:Bag>
				</dc:creator>
			</rdf:Description>
		</rdf:RDF>
    </metadata></svg>
