<?xml version="1.0" encoding="UTF-8"?>
<svg xmlns="http://www.w3.org/2000/svg" xmlns:xlink="http://www.w3.org/1999/xlink" width="512px" height="512px" viewBox="0 0 512 512" version="1.1">
    
    <title>Paster</title>
    <desc>Created with Sketch.</desc>
    <defs>
        <polygon id="path-1" points="249.915634 504.57971 499.830528 504.57971 499.830528 3.97727536 249.915634 3.97727536 0.000740796964 3.97727536 0.000740796964 504.57971"/>
    </defs>
    <g id="SVG" stroke="none" stroke-width="1" fill="none" fill-rule="evenodd">
        <g id="Paster">
            <g id="11" transform="translate(4.000000, 0.000000)">
                <path d="M48.6496182,466.622701 L41.389808,459.350817 C1.0237814,418.917658 1.0237814,353.359397 41.389808,312.926238 L305.002408,48.8752232 C345.368434,8.44206377 410.810438,8.44206377 451.176465,48.8752232 L458.443683,56.1471072 C498.809709,96.5802667 498.809709,162.138528 458.443683,202.571687 L194.823675,466.622701 C154.457649,507.055861 89.0156448,507.055861 48.6496182,466.622701" id="Fill-1" fill="#F8B277"/>
                <g id="Group-5" transform="translate(0.000000, 3.442272)">
                    <mask id="mask-2" fill="white">
                        <use xlink:href="#path-1"/>
                    </mask>
                    <g id="Clip-4"/>
                    <path d="M378.088695,26.2826667 C354.472088,26.2826667 330.840665,35.2908986 312.854115,53.3073623 L49.241515,317.358377 C13.2758224,353.383884 13.2758224,412.004174 49.241515,448.037101 L56.5087332,455.308986 C92.4744258,491.341913 151.004794,491.341913 186.970487,455.308986 L450.583086,191.257971 C468.014039,173.805449 477.607359,150.602203 477.607359,125.922319 C477.607359,101.235014 468.014039,78.0317681 450.583086,60.5792464 L443.323276,53.3073623 C425.336726,35.2908986 401.705302,26.2826667 378.088695,26.2826667 M121.743314,504.57971 C92.42257,504.57971 63.1092342,493.404754 40.7964296,471.04742 L33.5292114,463.775536 C11.905348,442.11571 0.000740796964,413.324986 0.000740796964,382.694029 C0.000740796964,352.063072 11.905348,323.272348 33.5292114,301.612522 L297.141811,37.5689275 C318.765674,15.9091014 347.508597,3.97727536 378.088695,3.97727536 C408.668794,3.97727536 437.411716,15.9091014 459.03558,37.5689275 L466.29539,44.8408116 C487.919253,66.4932174 499.831268,95.2913623 499.831268,125.922319 C499.831268,156.545855 487.919253,185.344 466.29539,206.996406 L202.68279,471.04742 C180.369986,493.404754 151.05665,504.57971 121.743314,504.57971" id="Fill-3" fill="#2E2E30" mask="url(#mask-2)"/>
                </g>
                <path d="M458.44146,56.1493333 L451.18165,48.8774493 C447.966591,45.6570435 444.544109,42.7853913 441.032732,40.0769855 C472.264732,80.6808116 469.397847,139.123014 432.24688,176.335768 L168.63428,440.386783 C131.483312,477.599536 73.1381435,480.471188 32.6017336,449.187246 C35.3056425,452.697043 38.1725268,456.125217 41.3875856,459.345623 L48.6473958,466.624928 C89.0134224,507.058087 154.462834,507.058087 194.828861,466.624928 L458.44146,202.566493 C498.807487,162.133333 498.807487,96.5824928 458.44146,56.1493333" id="Fill-6" fill="#040605" opacity="0.15"/>
                <polygon id="Fill-8" fill="#F8CDB2" points="245.798655 357.180104 149.732105 260.953786 253.110321 157.39622 349.184279 253.622539"/>
                <path d="M165.442186,260.949333 L245.803841,341.444638 L333.469753,253.625507 L253.115507,173.137623 L165.442186,260.949333 Z M245.803841,368.313507 C242.855469,368.313507 240.025624,367.141101 237.943985,365.04858 L141.870027,268.822261 C139.788387,266.729739 138.617928,263.895188 138.617928,260.949333 C138.617928,258.003478 139.788387,255.168928 141.870027,253.076406 L245.255651,149.526261 C249.596721,145.177971 256.634292,145.177971 260.975362,149.526261 L357.034505,245.75258 C361.375575,250.10087 361.375575,257.142725 357.034505,261.491014 L253.656288,365.04858 C251.574649,367.141101 248.744805,368.313507 245.803841,368.313507 L245.803841,368.313507 Z" id="Fill-10" fill="#2E2E30"/>
                <polygon id="Fill-12" fill="#F8CDB2" points="245.798655 357.180104 149.732105 260.953786 253.110321 157.39622 349.184279 253.622539"/>
                <path d="M165.442186,260.949333 L245.803841,341.444638 L333.469753,253.625507 L253.115507,173.137623 L165.442186,260.949333 Z M245.803841,368.313507 C242.855469,368.313507 240.025624,367.141101 237.943985,365.04858 L141.870027,268.822261 C139.788387,266.729739 138.617928,263.895188 138.617928,260.949333 C138.617928,258.003478 139.788387,255.168928 141.870027,253.076406 L245.255651,149.526261 C249.596721,145.177971 256.634292,145.177971 260.975362,149.526261 L357.034505,245.75258 C361.375575,250.10087 361.375575,257.142725 357.034505,261.491014 L253.656288,365.04858 C251.574649,367.141101 248.744805,368.313507 245.803841,368.313507 L245.803841,368.313507 Z" id="Fill-14" fill="#2E2E30"/>
                <polygon id="Fill-16" fill="#040605" opacity="0.15" points="322.989699 227.391072 219.604074 330.948638 245.798655 357.179362 349.184279 253.629217"/>
                <path d="M314.650547,138.3936 C310.828035,142.22247 304.627564,142.22247 300.805052,138.3936 C296.98254,134.56473 296.98254,128.353948 300.805052,124.525078 C304.627564,120.696209 310.828035,120.696209 314.650547,124.525078 C318.47306,128.353948 318.47306,134.56473 314.650547,138.3936" id="Fill-18" fill="#2E2E30"/>
                <path d="M340.93106,112.06938 C337.108548,115.898249 330.908077,115.898249 327.085565,112.06938 C323.263053,108.24051 323.263053,102.029728 327.085565,98.200858 C330.908077,94.3719884 337.108548,94.3719884 340.93106,98.200858 C344.753573,102.029728 344.753573,108.24051 340.93106,112.06938" id="Fill-20" fill="#2E2E30"/>
                <path d="M366.830063,86.1273043 C363.007551,89.9561739 356.80708,89.9561739 352.984568,86.1273043 C349.162055,82.2984348 349.162055,76.0876522 352.984568,72.2587826 C356.80708,68.429913 363.007551,68.429913 366.830063,72.2587826 C370.652575,76.0876522 370.652575,82.2984348 366.830063,86.1273043" id="Fill-22" fill="#2E2E30"/>
                <path d="M380.590367,204.442342 C376.767854,208.271212 370.567384,208.271212 366.744871,204.442342 C362.922359,200.613472 362.922359,194.40269 366.744871,190.57382 C370.567384,186.744951 376.767854,186.744951 380.590367,190.57382 C384.412879,194.40269 384.412879,200.613472 380.590367,204.442342" id="Fill-24" fill="#2E2E30"/>
                <path d="M406.870139,178.118864 C403.047627,181.947733 396.847156,181.947733 393.024644,178.118864 C389.202131,174.289994 389.202131,168.079212 393.024644,164.250342 C396.847156,160.421472 403.047627,160.421472 406.870139,164.250342 C410.692651,168.079212 410.692651,174.289994 406.870139,178.118864" id="Fill-26" fill="#2E2E30"/>
                <path d="M432.769142,152.176788 C428.946629,156.005658 422.746159,156.005658 418.923646,152.176788 C415.101134,148.347919 415.101134,142.137136 418.923646,138.308267 C422.746159,134.479397 428.946629,134.479397 432.769142,138.308267 C436.591654,142.137136 436.591654,148.347919 432.769142,152.176788" id="Fill-28" fill="#2E2E30"/>
                <path d="M362.113409,159.229774 C358.290896,163.058643 352.090426,163.058643 348.267913,159.229774 C344.445401,155.400904 344.445401,149.190122 348.267913,145.361252 C352.090426,141.532383 358.290896,141.532383 362.113409,145.361252 C365.935921,149.190122 365.935921,155.400904 362.113409,159.229774" id="Fill-30" fill="#2E2E30"/>
                <path d="M337.587844,183.796128 C333.765331,187.624997 327.564861,187.624997 323.742348,183.796128 C319.919836,179.967258 319.919836,173.756475 323.742348,169.927606 C327.564861,166.098736 333.765331,166.098736 337.587844,169.927606 C341.410356,173.756475 341.410356,179.967258 337.587844,183.796128" id="Fill-32" fill="#2E2E30"/>
                <path d="M388.012411,133.287699 C384.189899,137.116568 377.989428,137.116568 374.166916,133.287699 C370.344404,129.458829 370.344404,123.248046 374.166916,119.419177 C377.989428,115.590307 384.189899,115.590307 388.012411,119.419177 C391.834924,123.248046 391.834924,129.458829 388.012411,133.287699" id="Fill-34" fill="#2E2E30"/>
                <path d="M414.517386,106.738643 C410.694874,110.567513 404.494403,110.567513 400.671891,106.738643 C396.849378,102.909774 396.849378,96.6989913 400.671891,92.8701217 C404.494403,89.0412522 410.694874,89.0412522 414.517386,92.8701217 C418.339898,96.6989913 418.339898,102.909774 414.517386,106.738643" id="Fill-36" fill="#2E2E30"/>
                <path d="M130.757331,322.592649 C134.579844,318.76378 134.579844,312.552997 130.757331,308.724128 C126.934819,304.895258 120.734348,304.895258 116.911836,308.724128 C113.089324,312.552997 113.089324,318.76378 116.911836,322.592649 C120.734348,326.421519 126.934819,326.421519 130.757331,322.592649" id="Fill-38" fill="#2E2E30"/>
                <path d="M104.476818,348.916128 C108.299331,345.087258 108.299331,338.876475 104.476818,335.047606 C100.654306,331.218736 94.4538353,331.218736 90.631323,335.047606 C86.8088106,338.876475 86.8088106,345.087258 90.631323,348.916128 C94.4538353,352.744997 100.654306,352.744997 104.476818,348.916128" id="Fill-40" fill="#2E2E30"/>
                <path d="M78.5778156,374.858945 C82.4003279,371.030075 82.4003279,364.819293 78.5778156,360.990423 C74.7553032,357.161554 68.5548326,357.161554 64.7323203,360.990423 C60.909808,364.819293 60.909808,371.030075 64.7323203,374.858945 C68.5548326,378.687814 74.7553032,378.687814 78.5778156,374.858945" id="Fill-42" fill="#2E2E30"/>
                <path d="M196.69641,388.641391 C200.518922,384.812522 200.518922,378.601739 196.69641,374.77287 C192.873898,370.944 186.673427,370.944 182.850915,374.77287 C179.028402,378.601739 179.028402,384.812522 182.850915,388.641391 C186.673427,392.470261 192.873898,392.470261 196.69641,388.641391" id="Fill-44" fill="#2E2E30"/>
                <path d="M170.416638,414.965612 C174.23915,411.136742 174.23915,404.925959 170.416638,401.09709 C166.594125,397.26822 160.393655,397.26822 156.571142,401.09709 C152.74863,404.925959 152.74863,411.136742 156.571142,414.965612 C160.393655,418.794481 166.594125,418.794481 170.416638,414.965612" id="Fill-46" fill="#2E2E30"/>
                <path d="M144.517635,440.907687 C148.340147,437.078817 148.340147,430.868035 144.517635,427.039165 C140.695123,423.210296 134.494652,423.210296 130.67214,427.039165 C126.849627,430.868035 126.849627,437.078817 130.67214,440.907687 C134.494652,444.736557 140.695123,444.736557 144.517635,440.907687" id="Fill-48" fill="#2E2E30"/>
                <path d="M151.55891,370.134446 C155.381422,366.305577 155.381422,360.094794 151.55891,356.265925 C147.736398,352.437055 141.535927,352.437055 137.713415,356.265925 C133.890902,360.094794 133.890902,366.305577 137.713415,370.134446 C141.535927,373.963316 147.736398,373.963316 151.55891,370.134446" id="Fill-50" fill="#2E2E30"/>
                <path d="M176.084475,345.568093 C179.906987,341.739223 179.906987,335.528441 176.084475,331.699571 C172.261963,327.870701 166.061492,327.870701 162.23898,331.699571 C158.416468,335.528441 158.416468,341.739223 162.23898,345.568093 C166.061492,349.396962 172.261963,349.396962 176.084475,345.568093" id="Fill-52" fill="#2E2E30"/>
                <path d="M125.659907,396.076522 C129.48242,392.247652 129.48242,386.03687 125.659907,382.208 C121.837395,378.37913 115.636924,378.37913 111.814412,382.208 C107.9919,386.03687 107.9919,392.247652 111.814412,396.076522 C115.636924,399.905391 121.837395,399.905391 125.659907,396.076522" id="Fill-54" fill="#2E2E30"/>
                <path d="M99.1549328,422.625577 C102.977445,418.796707 102.977445,412.585925 99.1549328,408.757055 C95.3324205,404.928186 89.1319499,404.928186 85.3094376,408.757055 C81.4869252,412.585925 81.4869252,418.796707 85.3094376,422.625577 C89.1319499,426.454446 95.3324205,426.454446 99.1549328,422.625577" id="Fill-56" fill="#2E2E30"/>
            </g>
        </g>
    </g>

	<metadata>
		<rdf:RDF xmlns:rdf="http://www.w3.org/1999/02/22-rdf-syntax-ns#" xmlns:rdfs="http://www.w3.org/2000/01/rdf-schema#" xmlns:dc="http://purl.org/dc/elements/1.1/">
			<rdf:Description about="https://iconscout.com/legal#licenses" dc:title="Paster" dc:description="Paster" dc:publisher="Iconscout" dc:date="2017-04-20" dc:format="image/svg+xml" dc:language="en">
				<dc:creator>
					<rdf:Bag>
						<rdf:li>AomAm .</rdf:li>
					</rdf:Bag>
				</dc:creator>
			</rdf:Description>
		</rdf:RDF>
    </metadata></svg>
