<?xml version="1.0" encoding="UTF-8"?>
<svg xmlns="http://www.w3.org/2000/svg" xmlns:xlink="http://www.w3.org/1999/xlink" width="512px" height="512px" viewBox="0 0 512 512" version="1.1">
    
    <title>Report</title>
    <desc>Created with Sketch.</desc>
    <defs/>
    <g id="SVG" stroke="none" stroke-width="1" fill="none" fill-rule="evenodd">
        <g id="Report">
            <g id="2" transform="translate(34.000000, 0.000000)">
                <path d="M408.17363,501.285948 L36.9049469,501.285948 C22.9104807,501.285948 11.5628552,489.915253 11.5628552,475.892336 L11.5628552,36.9708002 C11.5628552,22.9478832 22.9104807,11.5771879 36.9049469,11.5771879 L408.17363,11.5771879 C422.168096,11.5771879 433.515722,22.9478832 433.515722,36.9708002 L433.515722,475.892336 C433.515722,489.915253 422.168096,501.285948 408.17363,501.285948 L408.17363,501.285948 Z" id="Fill-1" fill="#C4C3C3"/>
                <g id="Group-5" transform="translate(0.000000, 0.972793)" fill="#2E2E30">
                    <path d="M36.9063548,21.1871825 C28.7546486,21.1871825 22.123468,27.8318444 22.123468,36.000123 L22.123468,474.921659 C22.123468,483.089937 28.7546486,489.734599 36.9063548,489.734599 L408.175038,489.734599 C416.326744,489.734599 422.957925,483.089937 422.957925,474.921659 L422.957925,36.000123 C422.957925,27.8318444 416.326744,21.1871825 408.175038,21.1871825 L36.9063548,21.1871825 Z M408.175038,510.895943 L36.9063548,510.895943 C17.1113654,510.895943 1.00505823,494.756891 1.00505823,474.921659 L1.00505823,36.000123 C1.00505823,16.1648903 17.1113654,0.0258388864 36.9063548,0.0258388864 L408.175038,0.0258388864 C427.970027,0.0258388864 444.076334,16.1648903 444.076334,36.000123 L444.076334,474.921659 C444.076334,494.756891 427.970027,510.895943 408.175038,510.895943 L408.175038,510.895943 Z" id="Fill-3"/>
                </g>
                <polygon id="Fill-6" fill="#FEFEFE" points="64.3279059 458.484309 380.759118 458.484309 380.759118 11.5778933 64.3279059 11.5778933"/>
                <path d="M74.8800713,447.903637 L370.192874,447.903637 L370.192874,22.1585651 L74.8800713,22.1585651 L74.8800713,447.903637 Z M380.752079,469.064981 L64.3208665,469.064981 C58.4921854,469.064981 53.7616616,464.331894 53.7616616,458.484309 L53.7616616,11.5778933 C53.7616616,5.73736243 58.4921854,0.997221461 64.3208665,0.997221461 L380.752079,0.997221461 C386.58076,0.997221461 391.311284,5.73736243 391.311284,11.5778933 L391.311284,458.484309 C391.311284,464.331894 386.58076,469.064981 380.752079,469.064981 L380.752079,469.064981 Z" id="Fill-8" fill="#2E2E30"/>
                <polygon id="Fill-9" fill="#FEFEFE" points="127.176293 67.972874 317.896652 67.972874 317.896652 11.5778933 127.176293 11.5778933"/>
                <path d="M137.742538,57.3922022 L307.344486,57.3922022 L307.344486,22.1585651 L137.742538,22.1585651 L137.742538,57.3922022 Z M317.903691,78.5535458 L127.183333,78.5535458 C121.354652,78.5535458 116.624128,73.8204586 116.624128,67.972874 L116.624128,11.5778933 C116.624128,5.73736243 121.354652,0.997221461 127.183333,0.997221461 L317.903691,0.997221461 C323.732372,0.997221461 328.462896,5.73736243 328.462896,11.5778933 L328.462896,67.972874 C328.462896,73.8204586 323.732372,78.5535458 317.903691,78.5535458 L317.903691,78.5535458 Z" id="Fill-10" fill="#2E2E30"/>
                <path d="M321.159446,183.036269 L195.167014,183.036269 C189.331293,183.036269 184.607809,178.303182 184.607809,172.455597 C184.607809,166.608013 189.331293,161.874926 195.167014,161.874926 L321.159446,161.874926 C326.988127,161.874926 331.718651,166.608013 331.718651,172.455597 C331.718651,178.303182 326.988127,183.036269 321.159446,183.036269" id="Fill-11" fill="#2E2E30"/>
                <path d="M132.950067,189.522221 C130.493292,189.522221 128.029477,188.668713 126.037307,186.940537 L109.719816,172.783598 C105.313108,168.960449 104.841463,162.273464 108.656856,157.857797 C112.465209,153.435076 119.131587,152.948365 123.552374,156.785622 L132.168685,164.26263 L151.576504,143.411653 C155.553804,139.130008 162.227222,138.911341 166.50722,142.889673 C170.766099,146.87506 170.998401,153.569098 167.021101,157.84369 L140.672365,186.157567 C138.595721,188.386562 135.772894,189.522221 132.950067,189.522221" id="Fill-12" fill="#2E2E30"/>
                <path d="M321.159446,261.999117 L195.167014,261.999117 C189.331293,261.999117 184.607809,257.26603 184.607809,251.418446 C184.607809,245.570861 189.331293,240.837774 195.167014,240.837774 L321.159446,240.837774 C326.988127,240.837774 331.718651,245.570861 331.718651,251.418446 C331.718651,257.26603 326.988127,261.999117 321.159446,261.999117" id="Fill-13" fill="#2E2E30"/>
                <path d="M132.950067,268.484364 C130.493292,268.484364 128.036517,267.630856 126.037307,265.90268 L109.719816,251.745741 C105.313108,247.922592 104.841463,241.235607 108.656856,236.81994 C112.465209,232.404273 119.131587,231.917562 123.552374,235.747765 L132.168685,243.224773 L151.576504,222.373796 C155.553804,218.092151 162.241301,217.873484 166.50722,221.851816 C170.766099,225.844257 170.998401,232.531241 167.021101,236.805833 L140.672365,265.11971 C138.595721,267.348705 135.772894,268.484364 132.950067,268.484364" id="Fill-14" fill="#2E2E30"/>
                <path d="M321.159446,339.287398 L195.167014,339.287398 C189.331293,339.287398 184.607809,334.554311 184.607809,328.706726 C184.607809,322.859142 189.331293,318.126055 195.167014,318.126055 L321.159446,318.126055 C326.988127,318.126055 331.718651,322.859142 331.718651,328.706726 C331.718651,334.554311 326.988127,339.287398 321.159446,339.287398" id="Fill-15" fill="#2E2E30"/>
                <path d="M132.950067,345.772645 C130.493292,345.772645 128.036517,344.919137 126.037307,343.190961 L109.719816,329.034022 C105.313108,325.210872 104.841463,318.523888 108.656856,314.108221 C112.465209,309.692554 119.131587,309.205843 123.552374,313.036046 L132.168685,320.513054 L151.576504,299.662077 C155.553804,295.380432 162.241301,295.161764 166.50722,299.140097 C170.766099,303.132537 170.998401,309.819522 167.021101,314.094113 L140.672365,342.407991 C138.595721,344.636986 135.772894,345.772645 132.950067,345.772645" id="Fill-16" fill="#2E2E30"/>
                <path d="M408.17363,11.5778933 L384.739234,11.5778933 C380.825289,181.644558 331.373013,484.399901 31.0481079,500.538953 C32.9346859,500.983341 34.8775796,501.286653 36.9049469,501.286653 L408.17363,501.286653 C422.168096,501.286653 433.515722,489.915958 433.515722,475.893041 L433.515722,36.9715056 C433.515722,22.9485886 422.168096,11.5778933 408.17363,11.5778933" id="Fill-17" fill="#040605" opacity="0.15"/>
            </g>
        </g>
    </g>

	<metadata>
		<rdf:RDF xmlns:rdf="http://www.w3.org/1999/02/22-rdf-syntax-ns#" xmlns:rdfs="http://www.w3.org/2000/01/rdf-schema#" xmlns:dc="http://purl.org/dc/elements/1.1/">
			<rdf:Description about="https://iconscout.com/legal#licenses" dc:title="Report" dc:description="Report" dc:publisher="Iconscout" dc:date="2017-04-20" dc:format="image/svg+xml" dc:language="en">
				<dc:creator>
					<rdf:Bag>
						<rdf:li>AomAm .</rdf:li>
					</rdf:Bag>
				</dc:creator>
			</rdf:Description>
		</rdf:RDF>
    </metadata></svg>
