<?xml version="1.0" encoding="UTF-8"?>
<svg xmlns="http://www.w3.org/2000/svg" xmlns:xlink="http://www.w3.org/1999/xlink" width="512px" height="512px" viewBox="0 0 512 512" version="1.1">
    
    <title>Saline bag</title>
    <desc>Created with Sketch.</desc>
    <defs/>
    <g id="SVG" stroke="none" stroke-width="1" fill="none" fill-rule="evenodd">
        <g id="Saline-bag">
            <g id="9" transform="translate(57.000000, 0.000000)">
                <path d="M247.002196,404.638716 L247.002196,404.638716 C169.862012,404.638716 107.33203,342.351569 107.33203,265.510959 L107.33203,109.035025 C107.33203,96.5007411 117.530414,86.3419624 130.113565,86.3419624 L363.890828,86.3419624 C376.473979,86.3419624 386.672363,96.5007411 386.672363,109.035025 L386.672363,265.510959 C386.672363,342.351569 324.142381,404.638716 247.002196,404.638716" id="Fill-1" fill="#FEFEFE"/>
                <path d="M130.115669,96.8214343 C123.354155,96.8214343 117.855163,102.29907 117.855163,109.034326 L117.855163,265.51026 C117.855163,336.447041 175.790963,394.157847 247.004301,394.157847 C318.217639,394.157847 376.153438,336.447041 376.153438,265.51026 L376.153438,109.034326 C376.153438,102.29907 370.654447,96.8214343 363.885918,96.8214343 L130.115669,96.8214343 Z M247.004301,415.118188 C164.182761,415.118188 96.8131055,348.003176 96.8131055,265.51026 L96.8131055,109.034326 C96.8131055,90.7429354 111.752967,75.8610932 130.115669,75.8610932 L363.885918,75.8610932 C382.248621,75.8610932 397.195496,90.7429354 397.195496,109.034326 L397.195496,265.51026 C397.195496,348.003176 329.82584,415.118188 247.004301,415.118188 L247.004301,415.118188 Z" id="Fill-3" fill="#2E2E30"/>
                <path d="M107.331329,208.016044 L107.331329,280.860216 C107.331329,349.218876 169.861311,404.638018 247.001495,404.638018 C324.141679,404.638018 386.671661,349.218876 386.671661,280.860216 L386.671661,208.016044 L107.331329,208.016044 Z" id="Fill-5" fill="#62B5E5"/>
                <path d="M117.854462,218.496913 L117.854462,280.860915 C117.854462,343.329718 175.790261,394.158546 247.003599,394.158546 C318.216937,394.158546 376.152736,343.329718 376.152736,280.860915 L376.152736,218.496913 L117.854462,218.496913 Z M247.003599,415.118887 C164.182059,415.118887 96.8124041,354.885853 96.8124041,280.860915 L96.8124041,208.016743 C96.8124041,202.231689 101.525825,197.536572 107.333433,197.536572 L386.673765,197.536572 C392.481373,197.536572 397.194794,202.231689 397.194794,208.016743 L397.194794,280.860915 C397.194794,354.885853 329.825139,415.118887 247.003599,415.118887 L247.003599,415.118887 Z" id="Fill-7" fill="#2E2E30"/>
                <g id="Group-11" transform="translate(0.000000, 0.455538)" fill="#2E2E30">
                    <path d="M10.5210289,510.92651 C4.71342097,510.92651 0,506.231394 0,500.44634 L0,68.7122195 C0,31.0674468 30.7494606,0.444388344 68.5339825,0.444388344 L176.409599,0.444388344 C190.374512,0.444388344 203.336419,7.17265785 211.984705,18.9174357 C219.370467,28.9714127 231.15402,34.0647756 247.005703,34.0647756 C282.749146,34.0647756 294.132899,7.23553888 294.245123,6.96305444 C296.433497,1.61118067 302.56375,-0.980914854 307.957531,1.21992097 C313.337284,3.39979645 315.925457,9.51322928 313.730069,14.8790766 C313.063737,16.5139832 296.7351,55.0251167 247.005703,55.0251167 C218.451631,55.0251167 202.964676,42.1275201 195.010778,31.3119841 C190.381526,25.0099082 183.598969,21.4047295 176.409599,21.4047295 L68.5339825,21.4047295 C42.3506485,21.4047295 21.0420579,42.6305683 21.0420579,68.7122195 L21.0420579,500.44634 C21.0420579,506.231394 16.3286369,510.92651 10.5210289,510.92651" id="Fill-9"/>
                </g>
                <path d="M247.004301,96.8214343 C241.196693,96.8214343 236.483272,92.1263179 236.483272,86.3412637 L236.483272,28.3929072 C236.483272,22.6078531 241.196693,17.9127367 247.004301,17.9127367 C252.811909,17.9127367 257.52533,22.6078531 257.52533,28.3929072 L257.52533,86.3412637 C257.52533,92.1263179 252.811909,96.8214343 247.004301,96.8214343" id="Fill-12" fill="#2E2E30"/>
                <path d="M115.177912,245.661516 L164.255005,245.661516" id="Fill-14" fill="#FEFEFE"/>
                <path d="M164.260616,256.13959 L115.176509,256.13959 C109.368901,256.13959 104.65548,251.444474 104.65548,245.659419 C104.65548,239.874365 109.368901,235.179249 115.176509,235.179249 L164.260616,235.179249 C170.068224,235.179249 174.781645,239.874365 174.781645,245.659419 C174.781645,251.444474 170.068224,256.13959 164.260616,256.13959" id="Fill-16" fill="#2E2E30"/>
                <path d="M115.177912,288.009789 L143.675873,288.009789" id="Fill-18" fill="#FEFEFE"/>
                <path d="M143.677977,298.489959 L115.180016,298.489959 C109.365394,298.489959 104.658987,293.794843 104.658987,288.009789 C104.658987,282.224735 109.365394,277.529618 115.180016,277.529618 L143.677977,277.529618 C149.485585,277.529618 154.199006,282.224735 154.199006,288.009789 C154.199006,293.794843 149.485585,298.489959 143.677977,298.489959" id="Fill-20" fill="#2E2E30"/>
                <path d="M115.177912,170.833098 L143.675873,170.833098" id="Fill-22" fill="#FEFEFE"/>
                <path d="M143.677977,181.311172 L115.180016,181.311172 C109.365394,181.311172 104.658987,176.616056 104.658987,170.831002 C104.658987,165.045947 109.365394,160.350831 115.180016,160.350831 L143.677977,160.350831 C149.485585,160.350831 154.199006,165.045947 154.199006,170.831002 C154.199006,176.616056 149.485585,181.311172 143.677977,181.311172" id="Fill-24" fill="#2E2E30"/>
                <path d="M246.38356,460.333836 L246.38356,460.333836 C231.205222,460.333836 218.902632,448.079023 218.902632,432.959631 L218.902632,405.578438 L273.864488,405.578438 L273.864488,432.959631 C273.864488,448.079023 261.561898,460.333836 246.38356,460.333836" id="Fill-26" fill="#62B5E5"/>
                <path d="M229.421557,416.064198 L229.421557,432.958233 C229.421557,442.271612 237.031768,449.852268 246.381456,449.852268 C255.738157,449.852268 263.348368,442.271612 263.348368,432.958233 L263.348368,416.064198 L229.421557,416.064198 Z M246.381456,470.812609 C225.43058,470.812609 208.379499,453.827746 208.379499,432.958233 L208.379499,405.584028 C208.379499,399.798974 213.09292,395.103857 218.900528,395.103857 L273.869397,395.103857 C279.677005,395.103857 284.390426,399.798974 284.390426,405.584028 L284.390426,432.958233 C284.390426,453.827746 267.339345,470.812609 246.381456,470.812609 L246.381456,470.812609 Z" id="Fill-28" fill="#2E2E30"/>
                <path d="M246.38356,460.333836 L246.38356,500.90607" id="Fill-30" fill="#62B5E5"/>
                <path d="M246.381456,511.382048 C240.573848,511.382048 235.860427,506.686932 235.860427,500.901878 L235.860427,460.329644 C235.860427,454.54459 240.573848,449.849474 246.381456,449.849474 C252.189064,449.849474 256.902485,454.54459 256.902485,460.329644 L256.902485,500.901878 C256.902485,506.686932 252.189064,511.382048 246.381456,511.382048" id="Fill-32" fill="#2E2E30"/>
                <path d="M363.888022,86.3412637 L321.803907,86.3412637 C334.387057,86.3412637 344.592455,96.5000424 344.592455,109.041313 L344.592455,265.51026 C344.592455,335.203394 293.088512,392.760491 225.957333,402.891323 C232.838086,403.932353 239.831063,404.638018 246.999391,404.638018 L246.999391,404.638018 C324.139575,404.638018 386.676571,342.350871 386.676571,265.51026 L386.676571,109.041313 C386.676571,96.5000424 376.471173,86.3412637 363.888022,86.3412637" id="Fill-34" fill="#040605" opacity="0.15"/>
            </g>
        </g>
    </g>

	<metadata>
		<rdf:RDF xmlns:rdf="http://www.w3.org/1999/02/22-rdf-syntax-ns#" xmlns:rdfs="http://www.w3.org/2000/01/rdf-schema#" xmlns:dc="http://purl.org/dc/elements/1.1/">
			<rdf:Description about="https://iconscout.com/legal#licenses" dc:title="Saline bag" dc:description="Saline bag" dc:publisher="Iconscout" dc:date="2017-04-20" dc:format="image/svg+xml" dc:language="en">
				<dc:creator>
					<rdf:Bag>
						<rdf:li>AomAm .</rdf:li>
					</rdf:Bag>
				</dc:creator>
			</rdf:Description>
		</rdf:RDF>
    </metadata></svg>
