<?xml version="1.0" encoding="UTF-8"?>
<svg xmlns="http://www.w3.org/2000/svg" xmlns:xlink="http://www.w3.org/1999/xlink" width="512px" height="512px" viewBox="0 0 512 512" version="1.1">
    
    <title>Stethtoscope</title>
    <desc>Created with Sketch.</desc>
    <defs/>
    <g id="SVG" stroke="none" stroke-width="1" fill="none" fill-rule="evenodd">
        <g id="Stethtoscope">
            <g id="1" transform="translate(17.000000, 0.000000)">
                <path d="M118.968244,43.4169887 C118.968244,61.6976812 105.453736,76.5189349 88.7824048,76.5189349 C72.1110734,76.5189349 47.6817958,61.6976812 47.6817958,43.4169887 C47.6817958,25.1362961 72.1110734,10.3150424 88.7824048,10.3150424 C105.453736,10.3150424 118.968244,25.1362961 118.968244,43.4169887" id="Fill-1" fill="#727272"/>
                <path d="M88.7837803,20.6328358 C76.0601982,20.6328358 57.9927116,32.4141851 57.9927116,43.4183642 C57.9927116,54.4156657 76.0601982,66.1970149 88.7837803,66.1970149 C99.7398161,66.1970149 108.653201,55.9837612 108.653201,43.4183642 C108.653201,30.8529672 99.7398161,20.6328358 88.7837803,20.6328358 M88.7837803,86.8298507 C68.0752907,86.8298507 37.3598758,68.6041791 37.3598758,43.4183642 C37.3598758,18.2325493 68.0752907,0 88.7837803,0 C111.115386,0 129.286037,19.477397 129.286037,43.4183642 C129.286037,67.3593313 111.115386,86.8298507 88.7837803,86.8298507" id="Fill-3" fill="#2E2E30"/>
                <path d="M220.988676,43.4169887 C220.988676,61.6976812 234.503183,76.5189349 251.174515,76.5189349 C267.845846,76.5189349 292.275124,61.6976812 292.275124,43.4169887 C292.275124,25.1362961 267.845846,10.3150424 251.174515,10.3150424 C234.503183,10.3150424 220.988676,25.1362961 220.988676,43.4169887" id="Fill-5" fill="#727272"/>
                <path d="M251.173139,20.6328358 C240.217103,20.6328358 231.303718,30.8529672 231.303718,43.4183642 C231.303718,55.9837612 240.217103,66.1970149 251.173139,66.1970149 C263.896721,66.1970149 281.964208,54.4156657 281.964208,43.4183642 C281.964208,32.4141851 263.896721,20.6328358 251.173139,20.6328358 M251.173139,86.8298507 C228.841533,86.8298507 210.670882,67.3593313 210.670882,43.4183642 C210.670882,19.477397 228.841533,0 251.173139,0 C271.881629,0 302.597044,18.2325493 302.597044,43.4183642 C302.597044,68.6041791 271.881629,86.8298507 251.173139,86.8298507" id="Fill-7" fill="#2E2E30"/>
                <g id="Group-11" transform="translate(0.000000, 27.956805)" fill="#2E2E30">
                    <path d="M169.978804,297.678176 C21.2710782,297.678176 2.29574687,96.9138054 0.0192573134,35.3729337 C-0.269602388,27.4017815 2.61899463,19.8501636 8.16922746,14.10048 C13.7332155,8.32328597 21.2160573,5.14582925 29.2491081,5.14582925 L47.6811081,5.14582925 C53.3757707,5.14582925 57.997526,9.76070687 57.997526,15.4622472 C57.997526,21.1569099 53.3757707,25.7786651 47.6811081,25.7786651 L29.2491081,25.7786651 C26.8694543,25.7786651 24.6617409,26.7208979 23.0179916,28.4196681 C21.3948752,30.0978054 20.548929,32.2986412 20.6383379,34.6163964 C22.7428872,91.4873696 39.723711,277.04534 169.978804,277.04534 C300.233896,277.04534 317.21472,91.4873696 319.319269,34.6163964 C319.408678,32.2986412 318.562732,30.0978054 316.939616,28.4196681 C315.295866,26.7208979 313.088153,25.7786651 310.708499,25.7786651 L292.276499,25.7786651 C286.581836,25.7786651 281.960081,21.1569099 281.960081,15.4622472 C281.960081,9.76070687 286.581836,5.14582925 292.276499,5.14582925 L310.708499,5.14582925 C318.74155,5.14582925 326.224392,8.32328597 331.78838,14.10048 C337.338613,19.8501636 340.22721,27.4017815 339.93835,35.3729337 C337.66186,96.9138054 318.686529,297.678176 169.978804,297.678176" id="Fill-9"/>
                </g>
                <path d="M286.938097,509.389641 C216.758944,509.389641 159.66101,452.958835 159.66101,383.598118 L159.66101,315.317187 C159.66101,309.622524 164.282765,305.000769 169.977428,305.000769 C175.672091,305.000769 180.293846,309.622524 180.293846,315.317187 L180.293846,383.598118 C180.293846,441.583264 228.134515,488.756805 286.938097,488.756805 C345.741679,488.756805 393.57547,441.583264 393.57547,383.598118 L393.57547,290.544029 C393.57547,284.842488 398.197225,280.227611 403.891888,280.227611 C409.58655,280.227611 414.208306,284.842488 414.208306,290.544029 L414.208306,383.598118 C414.208306,452.958835 357.117249,509.389641 286.938097,509.389641" id="Fill-12" fill="#2E2E30"/>
                <path d="M466.545557,223.643434 C466.545557,258.2447 438.491778,286.298479 403.890512,286.298479 C369.289247,286.298479 341.242345,258.2447 341.242345,223.643434 C341.242345,189.042168 369.289247,160.988389 403.890512,160.988389 C438.491778,160.988389 466.545557,189.042168 466.545557,223.643434" id="Fill-14" fill="#C4C3C3"/>
                <path d="M436.614878,170.288296 C442.474603,179.820666 445.913409,191.003663 445.913409,203.011974 C445.913409,237.613239 417.85963,265.660141 383.258364,265.660141 C371.250054,265.660141 360.073934,262.228213 350.541564,256.368487 C361.559499,274.298421 381.298245,286.292977 403.8912,286.292977 C438.492466,286.292977 466.546245,258.246075 466.546245,223.64481 C466.546245,201.051854 454.544812,181.313108 436.614878,170.288296" id="Fill-18" fill="#040605" opacity="0.15"/>
                <path d="M403.8912,171.305495 C375.03274,171.305495 351.559451,194.785662 351.559451,223.644122 C351.559451,252.502581 375.03274,275.982749 403.8912,275.982749 C432.74966,275.982749 456.229827,252.502581 456.229827,223.644122 C456.229827,194.785662 432.74966,171.305495 403.8912,171.305495 M403.8912,296.615584 C363.65717,296.615584 330.926615,263.878152 330.926615,223.644122 C330.926615,183.410092 363.65717,150.672659 403.8912,150.672659 C444.132107,150.672659 476.862663,183.410092 476.862663,223.644122 C476.862663,263.878152 444.132107,296.615584 403.8912,296.615584" id="Fill-16" fill="#2E2E30"/>
                <path d="M430.62998,223.643434 C430.62998,238.409667 418.656057,250.383589 403.889824,250.383589 C389.123592,250.383589 377.156547,238.409667 377.156547,223.643434 C377.156547,208.877201 389.123592,196.903279 403.889824,196.903279 C418.656057,196.903279 430.62998,208.877201 430.62998,223.643434" id="Fill-20" fill="#FEFEFE"/>
                <path d="M403.8912,207.221072 C394.840263,207.221072 387.467463,214.586995 387.467463,223.64481 C387.467463,232.695747 394.840263,240.061669 403.8912,240.061669 C412.942137,240.061669 420.314937,232.695747 420.314937,223.64481 C420.314937,214.586995 412.942137,207.221072 403.8912,207.221072 M403.8912,260.694505 C383.457815,260.694505 366.834627,244.071317 366.834627,223.64481 C366.834627,203.211424 383.457815,186.588236 403.8912,186.588236 C424.324585,186.588236 440.947773,203.211424 440.947773,223.64481 C440.947773,244.071317 424.324585,260.694505 403.8912,260.694505" id="Fill-22" fill="#2E2E30"/>
            </g>
        </g>
    </g>

	<metadata>
		<rdf:RDF xmlns:rdf="http://www.w3.org/1999/02/22-rdf-syntax-ns#" xmlns:rdfs="http://www.w3.org/2000/01/rdf-schema#" xmlns:dc="http://purl.org/dc/elements/1.1/">
			<rdf:Description about="https://iconscout.com/legal#licenses" dc:title="Stethtoscope" dc:description="Stethtoscope" dc:publisher="Iconscout" dc:date="2017-04-20" dc:format="image/svg+xml" dc:language="en">
				<dc:creator>
					<rdf:Bag>
						<rdf:li>AomAm .</rdf:li>
					</rdf:Bag>
				</dc:creator>
			</rdf:Description>
		</rdf:RDF>
    </metadata></svg>
