<?xml version="1.0" encoding="UTF-8"?>
<svg xmlns="http://www.w3.org/2000/svg" xmlns:xlink="http://www.w3.org/1999/xlink" width="512px" height="512px" viewBox="0 0 512 512" version="1.1">
    
    <title>Syring</title>
    <desc>Created with Sketch.</desc>
    <defs>
        <polygon id="path-1" points="0 3.78333867 0 163.837952 160.050859 163.837952 160.050859 3.78333867 9.25185854e-20 3.78333867"/>
    </defs>
    <g id="SVG" stroke="none" stroke-width="1" fill="none" fill-rule="evenodd">
        <g id="Syring">
            <g id="3" transform="translate(0.000000, 17.000000)">
                <path d="M198.610261,360.820736 L113.625088,275.835563 L286.708395,102.745429 C297.023488,92.430336 313.755648,92.430336 324.070741,102.745429 L371.693568,150.368256 C382.015488,160.690176 382.015488,177.415509 371.693568,187.737429 L198.610261,360.820736 Z" id="Fill-1" fill="#FEFEFE"/>
                <path d="M128.103083,275.832832 L198.608896,346.338645 L364.455936,180.491605 C367.514283,177.433259 369.193643,173.371392 369.193643,169.050112 C369.193643,164.728832 367.507456,160.666965 364.455936,157.608619 L316.833109,109.985792 C310.723243,103.875925 300.053163,103.875925 293.950123,109.985792 L128.103083,275.832832 Z M198.608896,371.058005 C195.987456,371.058005 193.372843,370.061312 191.372629,368.061099 L106.380629,283.075925 C102.380203,279.075499 102.380203,272.590165 106.380629,268.589739 L279.470763,95.506432 C286.393003,88.584192 295.595349,84.7680853 305.391616,84.7680853 C315.181056,84.7680853 324.390229,88.584192 331.312469,95.506432 L378.935296,143.129259 C385.864363,150.051499 389.673643,159.260672 389.673643,169.050112 C389.673643,178.846379 385.864363,188.048725 378.935296,194.977792 L205.851989,368.061099 C203.851776,370.061312 201.230336,371.058005 198.608896,371.058005 L198.608896,371.058005 Z" id="Fill-3" fill="#2E2E30"/>
                <path d="M370.765824,149.440512 L385.245184,134.961152 C397.833557,122.372779 397.833557,101.783552 385.245184,89.1951787 C372.663637,76.613632 352.067584,76.613632 339.486037,89.1951787 L324.999851,103.674539 L370.765824,149.440512 Z" id="Fill-5" fill="#62B5E5"/>
                <path d="M339.483307,103.676587 L370.763093,134.956373 L378.006187,127.720107 C382.1568,123.569493 384.443733,118.012587 384.443733,112.080213 C384.443733,106.14784 382.1568,100.590933 378.006187,96.4334933 C369.698133,88.1390933 355.027627,88.1322667 346.7264,96.44032 L339.483307,103.676587 Z M370.763093,159.68256 L370.763093,159.68256 C368.052907,159.68256 365.44512,158.59712 363.52,156.678827 L317.760853,110.91968 C313.760427,106.919253 313.760427,100.43392 317.760853,96.4334933 L332.240213,81.9541333 C340.261547,73.9396267 350.96576,69.5227733 362.366293,69.5227733 C373.766827,69.5227733 384.464213,73.9396267 392.485547,81.9541333 C400.500053,89.9754667 404.923733,100.67968 404.923733,112.080213 C404.923733,123.480747 400.500053,134.18496 392.485547,142.206293 L378.006187,156.678827 C376.081067,158.59712 373.47328,159.68256 370.763093,159.68256 L370.763093,159.68256 Z" id="Fill-7" fill="#2E2E30"/>
                <path d="M385.245867,89.1972267 L464.203093,10.24" id="Fill-9" fill="#FEFEFE"/>
                <path d="M385.243136,99.436544 C382.621696,99.436544 380.000256,98.4398507 378.000043,96.4396373 C374.006443,92.4392107 374.006443,85.9538773 378.000043,81.9534507 L456.964096,3.00305067 C460.964523,-0.997376 467.443029,-0.997376 471.443456,3.00305067 C475.443883,6.99665067 475.443883,13.481984 471.443456,17.4824107 L392.486229,96.4396373 C390.486016,98.4398507 387.864576,99.436544 385.243136,99.436544" id="Fill-11" fill="#2E2E30"/>
                <path d="M82.9262507,245.136725 L229.303637,391.514112" id="Fill-13" fill="#FEFEFE"/>
                <path d="M229.303637,401.75616 C226.682197,401.75616 224.060757,400.759467 222.060544,398.759253 L75.6831573,252.37504 C71.6827307,248.38144 71.6827307,241.896107 75.6831573,237.89568 C79.683584,233.895253 86.1620907,233.895253 90.1625173,237.89568 L236.546731,384.273067 C240.540331,388.273493 240.540331,394.758827 236.546731,398.759253 C234.546517,400.759467 231.925077,401.75616 229.303637,401.75616" id="Fill-15" fill="#2E2E30"/>
                <polygon id="Fill-17" fill="#FEFEFE" points="118.861141 401.345195 73.095168 355.579221 132.610048 296.071168 178.376021 341.830315"/>
                <polygon id="Fill-21" fill="#040605" opacity="0.15" points="98.588672 381.072043 118.863872 401.347243 178.371925 341.832363 158.103552 321.557163"/>
                <path d="M87.576576,355.583317 L118.863189,386.869931 L163.898709,341.827584 L132.612096,310.547797 L87.576576,355.583317 Z M118.863189,411.589291 C116.241749,411.589291 113.620309,410.585771 111.620096,408.585557 L65.8541227,362.826411 C63.9358293,360.901291 62.857216,358.300331 62.857216,355.583317 C62.857216,352.866304 63.9358293,350.265344 65.8541227,348.340224 L125.369003,288.832171 C129.369429,284.831744 135.847936,284.831744 139.848363,288.832171 L185.614336,334.591317 C187.539456,336.509611 188.618069,339.110571 188.618069,341.827584 C188.618069,344.544597 187.539456,347.152384 185.614336,349.070677 L126.106283,408.585557 C124.106069,410.585771 121.484629,411.589291 118.863189,411.589291 L118.863189,411.589291 Z" id="Fill-19" fill="#2E2E30"/>
                <path d="M111.320405,457.611947 L16.832512,363.124053 C8.06024533,354.351787 8.06024533,339.995307 16.832512,331.216213 L16.832512,331.216213 C25.6047787,322.443947 39.9612587,322.443947 48.7335253,331.216213 L143.221419,425.710933 C152.000512,434.4832 152.000512,448.83968 143.221419,457.611947 L143.221419,457.611947 C134.449152,466.384213 120.092672,466.384213 111.320405,457.611947" id="Fill-23" fill="#FEFEFE"/>
                <g id="Group-27" transform="translate(0.000000, 310.603093)">
                    <mask id="mask-2" fill="white">
                        <use xlink:href="#path-1"/>
                    </mask>
                    <g id="Clip-26"/>
                    <path d="M32.7830187,24.2530987 C29.6290987,24.2530987 26.468352,25.454592 24.072192,27.8575787 C19.2730453,32.6567253 19.2730453,40.4732587 24.072192,45.279232 L118.560085,139.767125 C123.372885,144.573099 131.189419,144.566272 135.981739,139.767125 C140.780885,134.961152 140.780885,127.144619 135.981739,122.345472 L41.4938453,27.8575787 C39.0976853,25.454592 35.9369387,24.2530987 32.7830187,24.2530987 M127.270912,163.837952 C118.874112,163.837952 110.477312,160.643072 104.080725,154.246485 L9.592832,59.758592 C-3.20034133,46.9722453 -3.20034133,26.1645653 9.592832,13.3782187 C22.3791787,0.585045333 43.1868587,0.585045333 55.9732053,13.3782187 L150.461099,107.866112 C163.247445,120.652459 163.247445,141.460139 150.461099,154.246485 C144.071339,160.643072 135.667712,163.837952 127.270912,163.837952" id="Fill-25" fill="#2E2E30" mask="url(#mask-2)"/>
                </g>
                <path d="M373.510827,152.185515 L322.256213,100.930901 C312.94464,91.619328 297.837227,91.619328 288.525653,100.930901 L209.506987,179.949568 L294.49216,264.934741 L373.510827,185.922901 C382.829227,176.604501 382.829227,161.503915 373.510827,152.185515" id="Fill-28" fill="#62B5E5"/>
                <path d="M223.983616,179.949568 L294.496256,250.455381 L366.271829,178.679808 C368.845483,176.106155 370.258603,172.692821 370.258603,169.054208 C370.258603,165.415595 368.845483,162.002261 366.271829,159.428608 L315.017216,108.173995 C309.869909,103.033515 300.913323,103.033515 295.766016,108.173995 L223.983616,179.949568 Z M294.496256,275.174741 C291.874816,275.174741 289.260203,274.178048 287.259989,272.177835 L202.261163,187.192661 C200.342869,185.267541 199.264256,182.666581 199.264256,179.949568 C199.264256,177.232555 200.342869,174.631595 202.261163,172.706475 L281.286656,93.6946347 C287.717376,87.2502613 296.284843,83.7072213 305.391616,83.7072213 C314.498389,83.7072213 323.065856,87.2502613 329.496576,93.6946347 L380.751189,144.949248 C387.188736,151.379968 390.738603,159.947435 390.738603,169.047381 C390.738603,178.160981 387.188736,186.721621 380.751189,193.165995 L301.739349,272.177835 C299.739136,274.178048 297.117696,275.174741 294.496256,275.174741 L294.496256,275.174741 Z" id="Fill-30" fill="#2E2E30"/>
                <path d="M490.078891,139.446272 C503.827797,155.338752 502.086997,179.368619 486.194517,193.110699 C470.302037,206.859605 446.272171,205.125632 432.530091,189.233152 C418.781184,173.340672 426.973184,140.060672 453.289984,98.977792 C453.289984,98.977792 476.329984,123.553792 490.078891,139.446272" id="Fill-32" fill="#62B5E5"/>
                <path d="M490.078891,139.446272 C476.329984,123.553792 453.289984,98.977792 453.289984,98.977792 C452.108971,100.827819 451.003051,102.643712 449.890304,104.459605 C454.436864,109.490859 458.962944,114.563072 462.772224,118.966272 C476.521131,134.858752 474.780331,158.888619 458.887851,172.630699 C450.040491,180.283392 438.701397,182.966272 427.990357,181.252779 C429.068971,184.242859 430.543531,186.939392 432.530091,189.233152 C446.272171,205.125632 470.302037,206.859605 486.194517,193.110699 C502.086997,179.368619 503.827797,155.338752 490.078891,139.446272" id="Fill-36" fill="#040605" opacity="0.15"/>
                <path d="M454.989824,115.846485 C433.752064,152.573952 433.110357,174.248619 440.278357,182.529365 C445.138944,188.147712 451.890517,191.540565 459.297451,192.073045 C466.649771,192.632832 473.872384,190.229845 479.497557,185.369259 C491.089237,175.340885 492.365824,157.741739 482.330624,146.143232 C474.288811,136.852139 462.901931,124.407125 454.989824,115.846485 M461.379584,212.628139 C460.198571,212.628139 459.010731,212.587179 457.816064,212.498432 C444.954624,211.570005 433.226411,205.685419 424.781824,195.930112 C407.838037,176.330752 414.896811,139.937792 444.667904,93.4550187 C446.367744,90.7926187 449.200811,89.0722987 452.347904,88.778752 C455.508651,88.492032 458.601131,89.6730453 460.765184,91.973632 C461.707264,92.9839787 484.098731,116.884139 497.820331,132.749312 C515.241984,152.887979 513.030144,183.444139 492.898304,200.858965 C484.044117,208.518485 472.964437,212.628139 461.379584,212.628139" id="Fill-34" fill="#2E2E30"/>
                <path d="M268.184235,121.270955 L301.962581,155.049301" id="Fill-38" fill="#FEFEFE"/>
                <path d="M301.963264,165.289984 C299.341824,165.289984 296.720384,164.293291 294.720171,162.293077 L260.941824,128.507904 C256.941397,124.514304 256.941397,118.028971 260.941824,114.028544 C264.942251,110.028117 271.420757,110.028117 275.421184,114.028544 L309.206357,147.806891 C313.199957,151.807317 313.199957,158.292651 309.206357,162.293077 C307.206144,164.293291 304.584704,165.289984 301.963264,165.289984" id="Fill-40" fill="#2E2E30"/>
                <path d="M150.668629,238.78656 L184.446976,272.564907" id="Fill-42" fill="#FEFEFE"/>
                <path d="M184.443563,282.802859 C181.822123,282.802859 179.200683,281.806165 177.200469,279.805952 L143.428949,246.027605 C139.428523,242.027179 139.428523,235.541845 143.428949,231.548245 C147.429376,227.547819 153.907883,227.547819 157.908309,231.548245 L191.686656,265.319765 C195.680256,269.320192 195.680256,275.805525 191.686656,279.805952 C189.686443,281.806165 187.065003,282.802859 184.443563,282.802859" id="Fill-44" fill="#2E2E30"/>
                <path d="M238.925141,150.530048 L258.538155,170.143061" id="Fill-46" fill="#FEFEFE"/>
                <path d="M258.536789,180.383061 C255.915349,180.383061 253.293909,179.386368 251.293696,177.386155 L231.680683,157.766315 C227.680256,153.772715 227.680256,147.287381 231.680683,143.286955 C235.681109,139.286528 242.166443,139.286528 246.166869,143.286955 L265.779883,162.899968 C269.773483,166.900395 269.773483,173.385728 265.779883,177.386155 C263.779669,179.386368 261.158229,180.383061 258.536789,180.383061" id="Fill-48" fill="#2E2E30"/>
                <path d="M179.360427,210.094763 L198.97344,229.707776" id="Fill-50" fill="#FEFEFE"/>
                <path d="M198.970027,239.946411 C196.348587,239.946411 193.727147,238.949717 191.726933,236.949504 L172.120747,217.329664 C168.12032,213.336064 168.12032,206.850731 172.120747,202.850304 C176.121173,198.856704 182.606507,198.849877 186.600107,202.850304 L206.21312,222.463317 C210.20672,226.463744 210.20672,232.949077 206.21312,236.949504 C204.212907,238.949717 201.591467,239.946411 198.970027,239.946411" id="Fill-52" fill="#2E2E30"/>
                <path d="M365.201408,80.0290133 C369.597781,91.5933867 367.215275,105.20576 357.937835,114.4832 L343.458475,128.96256 L346.202795,131.70688 C355.521195,141.018453 355.521195,156.125867 346.202795,165.43744 L267.190955,244.456107 L174.716928,336.930133 L198.610261,360.823467 L294.497621,264.936107 L373.509461,185.91744 C382.827861,176.605867 382.827861,161.498453 373.509461,152.18688 L370.765141,149.44256 L385.244501,134.9632 C397.832875,122.374827 397.832875,101.778773 385.244501,89.1972267 C379.673941,83.6266667 372.519595,80.67072 365.201408,80.0290133" id="Fill-54" fill="#040605" opacity="0.15"/>
            </g>
        </g>
    </g>

	<metadata>
		<rdf:RDF xmlns:rdf="http://www.w3.org/1999/02/22-rdf-syntax-ns#" xmlns:rdfs="http://www.w3.org/2000/01/rdf-schema#" xmlns:dc="http://purl.org/dc/elements/1.1/">
			<rdf:Description about="https://iconscout.com/legal#licenses" dc:title="Syring" dc:description="Syring" dc:publisher="Iconscout" dc:date="2017-04-20" dc:format="image/svg+xml" dc:language="en">
				<dc:creator>
					<rdf:Bag>
						<rdf:li>AomAm .</rdf:li>
					</rdf:Bag>
				</dc:creator>
			</rdf:Description>
		</rdf:RDF>
    </metadata></svg>
