<?xml version="1.0" encoding="UTF-8"?>
<svg xmlns="http://www.w3.org/2000/svg" xmlns:xlink="http://www.w3.org/1999/xlink" width="512px" height="512px" viewBox="0 0 512 512" version="1.1">
    
    <title>teeth</title>
    <desc>Created with Sketch.</desc>
    <defs/>
    <g id="SVG" stroke="none" stroke-width="1" fill="none" fill-rule="evenodd">
        <g id="teeth">
            <g id="7" transform="translate(26.000000, 0.000000)">
                <path d="M299.237518,20.9411567 L251.219878,42.4549374 C237.646525,48.5344233 222.113425,48.5344233 208.540072,42.4549374 L160.522431,20.9411567 C114.578921,0.354497573 59.5382142,15.9483789 33.3980725,58.8543506 C13.152426,92.0939398 5.29055727,136.443789 16.782154,180.345277 L90.2460178,461.04274 C96.2091423,483.833213 113.633362,499.313104 133.314723,499.313104 C152.157281,499.313104 169.032466,485.094706 175.636131,463.641721 L213.92366,339.316234 C218.750588,323.646359 241.009361,323.646359 245.836289,339.316234 L284.123819,463.641721 C290.727484,485.094706 307.595043,499.313104 326.445227,499.313104 C346.126588,499.313104 363.550807,483.833213 369.513932,461.04274 L442.977796,180.345277 C454.469392,136.443789 446.607524,92.0939398 426.361877,58.8543506 C400.221735,15.9483789 345.181029,0.354497573 299.237518,20.9411567" id="Fill-1" fill="#FEFEFE"/>
                <g id="Group-5" transform="translate(0.000000, 0.051077)" fill="#2E2E30">
                    <path d="M229.879975,316.112955 C242.507768,316.112955 253.069056,323.887098 256.767413,335.91688 L295.054943,460.249966 C300.141138,476.770969 312.761305,487.866031 326.44904,487.866031 C340.929824,487.866031 353.786382,475.904642 358.445549,458.114547 L431.909413,177.417084 C442.097053,138.500774 436.515202,97.4262478 416.5822,64.7186137 C393.682887,27.1397914 345.261096,12.7694066 303.931001,31.2890406 L255.91336,52.8028213 C239.358445,60.2197941 220.386254,60.2121947 203.84659,52.8028213 L155.828949,31.2890406 C114.491228,12.7694066 66.0694369,27.1473908 43.1777492,64.7186137 C23.2447474,97.4262478 17.6628968,138.500774 27.8505366,177.417084 L101.3144,458.114547 C105.973568,475.904642 118.830125,487.866031 133.31091,487.866031 C146.998645,487.866031 159.618812,476.770969 164.705007,460.249966 L202.992536,335.91688 C206.690893,323.887098 217.252182,316.112955 229.879975,316.112955 M326.44904,510.664103 C302.642295,510.664103 281.237575,493.086789 273.192695,466.945 L234.905165,342.611914 C233.906228,339.389787 231.328816,338.911027 229.879975,338.911027 C228.431134,338.911027 225.853722,339.389787 224.854784,342.611914 L186.567255,466.945 C178.522374,493.086789 157.117655,510.664103 133.31091,510.664103 C108.261212,510.664103 86.4980949,491.855694 79.1776352,463.86726 L5.72139683,183.169797 C-6.02946617,138.31839 0.505569252,90.8300056 23.6183958,52.8864142 C52.4960845,5.48922229 113.377908,-12.7340367 165.215914,10.4895994 L213.225929,32.0109795 C223.802468,36.7529785 235.957482,36.7529785 246.534021,32.0109795 L294.544036,10.4895994 C346.389667,-12.7492354 407.25624,5.48922229 436.141554,52.8864142 C459.25438,90.8300056 465.789416,138.31839 454.038553,183.169797 L380.582315,463.86726 C373.261855,491.855694 351.498738,510.664103 326.44904,510.664103" id="Fill-3"/>
                </g>
                <g id="Group-10" transform="translate(106.756705, 9.154553)" fill="#040605" opacity="0.15">
                    <path d="M123.12327,311.9559 C118.296342,296.286025 73.3746457,305.952408 61.4178948,330.16396 L23.1303652,454.489447 C19.4167569,466.542028 12.4013163,476.178013 3.67776848,482.424685 C10.4720702,487.288273 18.2805606,490.153231 26.5542052,490.153231 C45.4043891,490.153231 62.2719484,475.942433 68.8832386,454.489447 L100.246833,352.63526 L123.12327,311.9559 Z" id="Fill-6"/>
                    <path d="M319.603647,49.7013171 C297.016979,12.6240525 252.85783,-3.99574211 211.634491,5.43506039 C236.836699,11.1801746 259.629256,26.3636906 273.850774,49.7013171 C294.09642,82.9333069 301.958289,127.290756 290.466692,171.192243 L217.002829,451.889707 C213.548487,465.09739 206.174649,475.713692 196.81056,482.423925 C203.620113,487.295113 211.428604,490.152471 219.686997,490.152471 C239.368358,490.152471 256.792578,474.68018 262.755702,451.889707 L336.219566,171.192243 C347.711163,127.290756 339.849294,82.9333069 319.603647,49.7013171" id="Fill-8"/>
                </g>
                <path d="M208.53931,42.4556974 C208.53931,42.4556974 240.085916,60.352184 290.719096,78.2486706" id="Fill-11" fill="#FEFEFE"/>
                <path d="M290.719858,89.6568259 C289.454029,89.6568259 288.157697,89.4440439 286.891868,88.9956818 C235.90029,70.9700061 204.201175,53.1115163 202.874341,52.3667792 C197.391622,49.2510427 195.477627,42.2976307 198.596448,36.8260934 C201.715268,31.3621555 208.707833,29.4471174 214.190552,32.5476552 C214.503197,32.7224404 245.607525,50.2085618 294.547849,67.5122985 C300.495722,69.6173205 303.606918,76.1299698 301.502285,82.0650679 C299.832306,86.7386726 295.424779,89.6568259 290.719858,89.6568259" id="Fill-13" fill="#2E2E30"/>
            </g>
        </g>
    </g>

	<metadata>
		<rdf:RDF xmlns:rdf="http://www.w3.org/1999/02/22-rdf-syntax-ns#" xmlns:rdfs="http://www.w3.org/2000/01/rdf-schema#" xmlns:dc="http://purl.org/dc/elements/1.1/">
			<rdf:Description about="https://iconscout.com/legal#licenses" dc:title="teeth" dc:description="teeth" dc:publisher="Iconscout" dc:date="2017-04-20" dc:format="image/svg+xml" dc:language="en">
				<dc:creator>
					<rdf:Bag>
						<rdf:li>AomAm .</rdf:li>
					</rdf:Bag>
				</dc:creator>
			</rdf:Description>
		</rdf:RDF>
    </metadata></svg>
